<svg width="37" height="37" viewBox="0 0 37 37" fill="none" xmlns="http://www.w3.org/2000/svg">
<path d="M29 5H27.5V2H24.5V5H12.5V2H9.5V5H8C6.35 5 5 6.35 5 8V29C5 30.65 6.35 32 8 32H29C30.65 32 32 30.65 32 29V8C32 6.35 30.65 5 29 5ZM29 29H8V14H29V29ZM8 11V8H29V11H8Z" fill="#838383"/>
<path d="M23.9 21.1536C24.1667 21.3075 24.1667 21.6925 23.9 21.8464L14.975 26.9993C14.7083 27.1532 14.375 26.9608 14.375 26.6529L14.375 16.3471C14.375 16.0392 14.7083 15.8468 14.975 16.0007L23.9 21.1536Z" fill="#838383"/>
</svg>
