<svg width="26" height="18" viewBox="0 0 26 18" fill="none" xmlns="http://www.w3.org/2000/svg">
<g opacity="0.8">
<path opacity="0.8" fill-rule="evenodd" clip-rule="evenodd" d="M25.351 16.1686C25.4904 15.7139 25.4845 1.63142 25.351 1.17043C25.2356 0.776123 24.8353 0.327332 24.4412 0.145493L24.1381 0H7.12012L6.6532 0.157684C6.09534 0.339737 5.42834 0.745987 5.08862 1.1039C4.94885 1.24959 3.79663 2.75368 2.52295 4.45178C0.861206 6.67139 0.187988 7.62355 0.109131 7.84796C-0.036377 8.26645 -0.036377 9.07907 0.109131 9.49751C0.18811 9.72192 0.861206 10.6741 2.52893 12.8939C3.79639 14.5921 4.93665 16.0839 5.05786 16.2175C5.34314 16.5268 5.96155 16.9208 6.48926 17.1392L6.91394 17.3151H24.259L24.5442 17.1512C24.9203 16.9267 25.2418 16.5388 25.351 16.1686ZM13.47 6.79269L15.2711 5.00346C16.3264 3.94832 17.1511 3.17809 17.2664 3.12953C17.9578 2.85054 18.71 3.10509 19.0067 3.71777C19.1644 4.03934 19.1765 4.59129 19.0371 4.87022C18.9827 4.97928 18.1335 5.87689 17.145 6.8654L15.3436 8.67235L17.1449 10.4737C18.1334 11.4683 18.9888 12.3719 19.0433 12.4872C19.2072 12.8212 19.1525 13.4517 18.922 13.7793C18.6976 14.0885 18.2729 14.3251 17.9091 14.3251C17.7803 14.3278 17.681 14.3312 17.585 14.3154C17.2334 14.2576 16.9243 13.9421 15.3619 12.3845L13.494 10.5287L11.632 12.3845C9.81848 14.1857 9.75793 14.2402 9.44861 14.307C8.83618 14.4342 8.22974 14.1431 7.96887 13.6033C7.8053 13.2639 7.78711 12.8211 7.93262 12.4754C7.99927 12.3299 8.59985 11.6749 9.69739 10.5711C10.6195 9.64925 11.4139 8.84856 11.4685 8.78799C11.5657 8.68492 11.4685 8.57584 9.79456 6.87151C8.75745 5.81624 7.9812 4.9731 7.92664 4.85184C7.87805 4.73651 7.83569 4.48798 7.83569 4.29993C7.82971 3.4693 8.61206 2.86259 9.46106 3.04466C9.7522 3.10529 9.83118 3.17207 11.6143 4.94899L13.47 6.79269Z" fill="white"/>
</g>
</svg>
