<svg width="57" height="25" viewBox="0 0 57 25" fill="none" xmlns="http://www.w3.org/2000/svg">
<path d="M12.9985 11.7798C13.6221 12.1884 14.1489 12.6722 14.5789 13.2313C15.0305 13.7689 15.3853 14.4355 15.6433 15.2311C15.9229 16.1127 16.0627 17.0051 16.0627 17.9082C16.0842 18.7898 15.9229 19.6177 15.5788 20.3918C15.2563 21.1444 14.7295 21.811 13.9984 22.3916C13.2888 22.9507 12.3534 23.3485 11.1922 23.585C10.5686 23.7355 9.83753 23.8538 8.99891 23.9398C8.16029 24.0258 7.40769 24.0688 6.74109 24.0688C5.90247 24.0903 5.0316 24.0903 4.12847 24.0688C3.24685 24.0688 2.38673 23.9828 1.54811 23.8108C1.18256 23.7033 0.91377 23.5205 0.741746 23.2625C0.591224 22.9829 0.483709 22.6711 0.4192 22.3271C0.333188 22.1335 0.290182 21.94 0.290182 21.7465V3.42591C0.290182 2.82382 0.408449 2.36151 0.644982 2.03896C0.903018 1.69491 1.23632 1.44763 1.64487 1.29711C2.05343 1.12508 2.51575 1.02832 3.03182 1.00682C3.54789 0.963809 4.08547 0.942306 4.64455 0.942306C5.07461 0.942306 5.50467 0.942306 5.93473 0.942306C6.38629 0.920803 6.83786 0.920803 7.28942 0.942306C7.99902 0.963808 8.73012 1.02832 9.48273 1.13583C10.2568 1.22184 10.9879 1.39387 11.676 1.65191C11.9986 1.75942 12.3426 1.90994 12.7082 2.10347C13.0737 2.27549 13.364 2.49052 13.5791 2.74856C14.2672 3.37215 14.7725 4.10325 15.095 4.94187C15.4391 5.75898 15.5896 6.5976 15.5466 7.45772C15.5036 8.29634 15.267 9.10271 14.837 9.87682C14.4284 10.6509 13.8156 11.2853 12.9985 11.7798ZM7.35393 20.3273C8.02052 20.2843 8.69787 20.209 9.38597 20.1015C10.0741 19.994 10.5471 19.7897 10.8052 19.4887C11.0847 19.1446 11.2782 18.7468 11.3857 18.2953C11.5148 17.8222 11.547 17.3491 11.4825 16.8761C11.4395 16.3815 11.2997 15.9192 11.0632 15.4891C10.8482 15.0375 10.5579 14.6827 10.1923 14.4247C9.69776 14.0377 9.12793 13.7904 8.48284 13.6829C7.83775 13.5538 7.20341 13.4893 6.57982 13.4893C6.27878 13.4893 5.99924 13.5001 5.7412 13.5216C5.50467 13.5216 5.28964 13.5538 5.09611 13.6183C4.92409 13.6613 4.79507 13.7581 4.70905 13.9086C4.62304 14.0592 4.58004 14.2849 4.58004 14.586C4.62304 15.1451 4.62304 15.7041 4.58004 16.2632C4.53703 16.8223 4.51553 17.3599 4.51553 17.8759C4.51553 18.177 4.50478 18.5103 4.48327 18.8758C4.48327 19.2199 4.60154 19.5102 4.83807 19.7467C5.07461 19.9832 5.41866 20.1445 5.87022 20.2305C6.32178 20.3165 6.81635 20.3488 7.35393 20.3273ZM7.99902 4.84511C7.33243 4.8236 6.77335 4.81285 6.32178 4.81285C5.89172 4.79135 5.54767 4.8236 5.28964 4.90962C5.0531 4.97412 4.88108 5.1354 4.77356 5.39343C4.68755 5.62997 4.6553 5.99552 4.6768 6.49009C4.6768 6.89865 4.66605 7.3072 4.64455 7.71576C4.64455 8.10282 4.64455 8.48987 4.64455 8.87692C4.64455 9.30699 4.78432 9.62953 5.06386 9.84456C5.34339 10.0381 5.68744 10.1564 6.096 10.1994C6.52606 10.2424 6.96687 10.2424 7.41844 10.1994C7.8915 10.1564 8.30006 10.1026 8.64411 10.0381C9.41822 9.90907 10.0096 9.65103 10.4181 9.26398C10.8482 8.85542 11.0955 8.26409 11.16 7.48998C11.246 6.52234 10.9879 5.85575 10.3859 5.4902C9.80527 5.10314 9.00966 4.88811 7.99902 4.84511ZM23.9534 1.61965C25.3941 1.08208 26.6951 0.845542 27.8562 0.910051C29.0389 0.974561 30.0925 1.2756 31.0172 1.81318C31.9418 2.32925 32.7267 3.0281 33.3718 3.90972C34.0384 4.79135 34.5759 5.78049 34.9845 6.87714C35.307 7.69426 35.5543 8.55438 35.7263 9.45751C35.8984 10.3606 35.9951 11.2638 36.0166 12.1669C36.0596 13.0485 36.0274 13.9194 35.9199 14.7795C35.8339 15.6396 35.6833 16.4352 35.4683 17.1663C35.3393 17.6609 35.1888 18.1125 35.0167 18.521C34.8447 18.9296 34.6404 19.3382 34.4039 19.7467C33.8663 20.6713 33.1675 21.4239 32.3074 22.0045C31.4687 22.5851 30.5441 22.9937 29.5335 23.2302C28.8454 23.4022 28.1358 23.4882 27.4047 23.4882C26.6736 23.4667 25.9532 23.37 25.2436 23.1979C24.534 23.0044 23.8459 22.7356 23.1793 22.3916C22.5342 22.026 21.9429 21.5745 21.4053 21.0369C20.7387 20.3918 20.1904 19.6499 19.7603 18.8113C19.3303 17.9512 18.997 17.0588 18.7604 16.1342C18.5239 15.1881 18.3734 14.2419 18.3089 13.2958C18.2444 12.3497 18.2444 11.4465 18.3089 10.5864C18.3734 9.7908 18.5239 8.94143 18.7604 8.03831C19.0185 7.13518 19.384 6.26431 19.8571 5.42569C20.3302 4.58707 20.9 3.83446 21.5666 3.16787C22.2547 2.47977 23.0503 1.9637 23.9534 1.61965ZM31.501 15.4246C31.759 14.414 31.8665 13.2743 31.8235 12.0056C31.7805 10.7369 31.5763 9.54352 31.2107 8.42536C30.9742 7.73726 30.6731 7.13518 30.3076 6.61911C29.9635 6.08153 29.5442 5.67297 29.0496 5.39343C28.5766 5.11389 28.0175 4.97412 27.3724 4.97412C26.7273 4.97412 26.007 5.16765 25.2114 5.55471C24.7383 5.79124 24.3297 6.11379 23.9857 6.52234C23.6631 6.9309 23.3943 7.39322 23.1793 7.90929C22.9858 8.42536 22.8245 8.96294 22.6955 9.52202C22.588 10.0811 22.5235 10.6187 22.502 11.1347C22.459 11.6938 22.4482 12.2852 22.4697 12.9087C22.4912 13.5108 22.5557 14.1237 22.6632 14.7473C22.7923 15.3493 22.9643 15.9299 23.1793 16.489C23.3943 17.0266 23.6846 17.5104 24.0502 17.9405C24.6093 18.5855 25.2544 19.0371 25.9855 19.2951C26.7381 19.5317 27.4799 19.5639 28.211 19.3919C29.3937 19.1339 30.2968 18.349 30.9204 17.0373C31.1784 16.5643 31.372 16.0267 31.501 15.4246ZM56.0407 20.7143C56.2772 21.1444 56.374 21.5207 56.3309 21.8433C56.3094 22.1658 56.2772 22.4346 56.2342 22.6496C56.1697 22.8862 56.0084 23.0904 55.7504 23.2625C55.5138 23.413 55.245 23.5312 54.944 23.6173C54.5569 23.7248 54.2344 23.7463 53.9764 23.6818C53.6538 23.6173 53.385 23.5097 53.17 23.3592C53.041 23.2517 52.9227 23.1549 52.8152 23.0689C52.7077 22.9614 52.6002 22.8646 52.4927 22.7786C52.3851 22.6711 52.2884 22.5744 52.2024 22.4883C52.1164 22.4023 52.0518 22.3163 52.0088 22.2303C51.9658 22.1443 51.9228 22.0905 51.8798 22.069C51.8583 22.026 51.8368 21.9938 51.8153 21.9723L47.5255 15.7794L43.2679 21.9723C43.2464 21.9938 43.2141 22.026 43.1711 22.069C43.1496 22.0905 43.1066 22.1443 43.0421 22.2303C42.9991 22.3163 42.9346 22.4023 42.8485 22.4883C42.784 22.5744 42.7088 22.6711 42.6228 22.7786C42.5152 22.8646 42.397 22.9614 42.268 23.0689C42.1389 23.1549 42.0207 23.2517 41.9132 23.3592C41.7841 23.4452 41.6444 23.5097 41.4939 23.5527C41.3648 23.5958 41.2358 23.6388 41.1068 23.6818C40.8273 23.7463 40.5262 23.7248 40.2037 23.6173C39.5371 23.4667 39.0748 23.1442 38.8167 22.6496C38.6877 22.3916 38.634 22.1228 38.6555 21.8433C38.677 21.5422 38.7415 21.2412 38.849 20.9401C38.978 20.6391 39.1178 20.3488 39.2683 20.0693C39.4403 19.7897 39.6123 19.5209 39.7844 19.2629C39.8704 19.1554 39.9456 19.0586 40.0101 18.9726C40.0962 18.8866 40.1822 18.7898 40.2682 18.6823C40.5477 18.3168 40.8165 17.9512 41.0745 17.5857C41.3326 17.1986 41.6121 16.79 41.9132 16.36L44.9128 12.0056L40.494 5.61922L40.1069 5.07089C40.0209 4.94187 39.9349 4.8236 39.8489 4.71609C39.7629 4.60857 39.6768 4.47955 39.5908 4.32903C39.5048 4.22152 39.4188 4.10325 39.3328 3.97423C39.2468 3.84522 39.1715 3.69469 39.107 3.52267C39.0425 3.39365 38.978 3.27538 38.9135 3.16787C38.8705 3.03885 38.8275 2.88833 38.7845 2.71631C38.72 2.45827 38.6985 2.22174 38.72 2.00671C38.7845 1.72717 38.9242 1.49063 39.1393 1.29711C39.2253 1.18959 39.322 1.10358 39.4296 1.03907C39.5586 0.97456 39.6768 0.910051 39.7844 0.845543C39.9994 0.759531 40.1929 0.695021 40.3649 0.652015C40.537 0.609009 40.7197 0.587506 40.9133 0.587506C41.3003 0.609009 41.6659 0.748779 42.0099 1.00682C42.44 1.28635 42.827 1.6304 43.1711 2.03896C43.3216 2.27549 43.4721 2.50128 43.6227 2.71631C43.7732 2.90983 43.9344 3.11411 44.1065 3.32914L44.1387 3.45816C44.6763 4.16776 45.1601 4.85586 45.5902 5.52245C46.0417 6.16754 46.5363 6.85564 47.0739 7.58674C47.1599 7.69426 47.2352 7.80177 47.2997 7.90929C47.3642 8.0168 47.4394 8.12432 47.5255 8.23183C47.6115 8.12432 47.6867 8.0168 47.7512 7.90929C47.8157 7.80177 47.891 7.69426 47.977 7.58674C48.4716 6.85564 48.9447 6.16754 49.3962 5.52245C49.8693 4.85586 50.3639 4.16776 50.8799 3.45816L50.9444 3.32914C51.1165 3.11411 51.2777 2.90983 51.4283 2.71631C51.6003 2.50128 51.7616 2.27549 51.9121 2.03896C52.2561 1.6304 52.6432 1.28635 53.0732 1.00682C53.3958 0.748779 53.7613 0.609009 54.1699 0.587506C54.5139 0.587506 54.8795 0.673519 55.2665 0.845543C55.5246 0.996064 55.7181 1.14658 55.8471 1.29711C56.1052 1.49063 56.2664 1.72717 56.3309 2.00671C56.3525 2.22174 56.3309 2.45827 56.2664 2.71631C56.2234 2.88833 56.1697 3.03885 56.1052 3.16787C56.0622 3.27538 55.9869 3.39365 55.8794 3.52267C55.7504 3.84522 55.6106 4.114 55.4601 4.32903C55.3741 4.47955 55.2881 4.60857 55.202 4.71609C55.116 4.8236 55.0408 4.94187 54.9763 5.07089L54.5892 5.61922L50.1381 12.0056L53.1377 16.36L54.8795 18.8113C55.073 19.1339 55.2665 19.4457 55.4601 19.7467C55.6536 20.0478 55.8471 20.3703 56.0407 20.7143Z" fill="white"/>
</svg>
