<svg width="46" height="32" viewBox="0 0 46 32" fill="none" xmlns="http://www.w3.org/2000/svg">
<path d="M20.0181 6.84138L27.3147 13.7905L34.6113 6.84138L36.8181 9.15862L29.6347 16L36.8181 22.8414L34.6113 25.1586L27.3147 18.2095L20.0181 25.1586L17.8113 22.8414L24.9947 16L17.8113 9.15862L20.0181 6.84138Z" fill="#DADCE0"/>
<path fill-rule="evenodd" clip-rule="evenodd" d="M13.4712 0C12.8787 0 12.3194 0.273546 11.9557 0.741234L1.00454 14.8212C0.465282 15.5146 0.465285 16.4854 1.00454 17.1788L11.9557 31.2588C12.3194 31.7264 12.8787 32 13.4712 32H43.3947C44.4551 32 45.3147 31.1404 45.3147 30.08V1.92C45.3147 0.859605 44.4551 0 43.3947 0H13.4712ZM4.14168 16L14.0972 3.2H42.1147V28.8H14.0972L4.14168 16Z" fill="#DADCE0"/>
</svg>
