<svg width="37" height="37" viewBox="0 0 37 37" fill="none" xmlns="http://www.w3.org/2000/svg">
<mask id="path-1-outside-1_180_1273" maskUnits="userSpaceOnUse" x="-0.5" y="4" width="38" height="29" fill="black">
<rect fill="white" x="-0.5" y="4" width="38" height="29"/>
<path d="M36.4597 12.985C36.429 12.4973 36.2694 12.0044 36.0933 11.5429C35.9665 11.2313 35.7747 10.9504 35.5307 10.7188C35.025 10.2289 34.386 10.0161 33.684 10.0326C32.9701 10.0483 32.2606 10.1307 31.5864 10.3787C30.8194 10.664 30.037 10.9061 29.243 11.1039C27.1903 9.25722 24.7728 8.51106 21.9844 8.95157C21.8017 8.57427 21.516 8.25637 21.1603 8.03459C21.0727 7.97991 21.0232 7.86004 20.9625 7.76714C20.3437 6.82845 19.6036 6.01261 18.6469 5.40504C17.9599 4.96828 17.2347 4.88737 16.4616 5.14958C15.7664 5.38482 15.2629 5.87477 14.8299 6.42315C13.9377 7.56038 13.223 8.80173 12.8521 10.2146C12.6641 10.9316 12.3322 11.5631 11.7823 12.0696C11.6564 12.1908 11.5441 12.3255 11.4475 12.4711C11.1635 12.8824 11.3321 13.3409 11.8101 13.4623C12.2588 13.581 12.7308 13.581 13.1795 13.4623C13.9221 13.2678 14.5949 12.8679 15.1206 12.3086C15.8038 11.5841 16.4219 10.7975 17.0722 10.0423C17.2399 9.84103 17.4203 9.65061 17.6123 9.47223C17.8827 9.23025 18.0498 9.26397 18.2431 9.57786C18.4161 9.85955 18.4678 10.1772 18.5278 10.4986C18.4372 10.5918 18.3417 10.6801 18.2416 10.763C17.7724 11.1174 17.3629 11.5446 17.0287 12.0284C16.804 12.3468 16.5455 12.5288 16.1537 12.5827C15.652 12.6497 15.1914 12.8958 14.8569 13.2757C13.9646 14.2841 14.0103 15.6873 14.991 16.6072C15.3858 16.9773 15.2592 17.3744 15.2524 17.8673C14.4456 17.1871 13.638 16.6777 12.736 16.324C11.834 15.9704 10.8953 15.8348 9.89895 15.7449C9.95214 15.5622 9.99559 15.4355 10.0256 15.3052C10.1477 14.7725 10.1919 14.2414 9.93566 13.732C9.44346 12.7536 8.27028 12.2187 7.06862 12.9184C6.78081 13.0933 6.51496 13.3021 6.27676 13.5402C6.21536 13.5941 6.16536 13.6598 6.12967 13.7334C6.09399 13.8069 6.07334 13.8869 6.06894 13.9685C6.06455 14.0501 6.07649 14.1318 6.10407 14.2088C6.13165 14.2858 6.17432 14.3564 6.22956 14.4167C6.43034 14.6414 6.82889 14.6707 7.11807 14.4601C7.23326 14.366 7.34353 14.266 7.44845 14.1605C7.54519 14.0623 7.66107 13.985 7.78891 13.9335C7.91675 13.8819 8.05382 13.8572 8.19161 13.8608C8.57219 13.8758 8.94077 14.2699 8.88534 14.6422C8.78345 15.3247 8.50326 15.8933 7.68668 16.0806C6.31272 16.387 5.15002 17.1197 4.13566 18.0726C3.31016 18.8601 2.65998 19.8127 2.22755 20.8685C1.8275 21.8176 1.5608 22.8073 1.57503 23.8471C1.58028 24.2292 1.45442 24.5004 1.18622 24.7663C0.522462 25.4241 0.356898 26.2399 0.617606 27.1142C0.8903 28.0282 1.52559 28.5893 2.47477 28.7549C2.6164 28.7724 2.75273 28.8197 2.87485 28.8935C2.99697 28.9673 3.10214 29.0661 3.18348 29.1834C3.59085 29.7674 4.07862 30.291 4.63235 30.7386C6.38389 32.1418 8.3819 32.7756 10.6024 32.5561C12.8641 32.3313 14.7363 31.3072 16.1769 29.5325C16.8163 28.7458 17.3051 27.8481 17.619 26.8842C17.8895 26.0601 18.064 25.2218 18.0521 24.3505C18.0476 24.0651 18.127 23.8344 18.4266 23.7055C18.4704 23.7132 18.5134 23.7252 18.5547 23.7415C18.6193 23.7794 18.6818 23.8207 18.742 23.8651C20.5865 25.1641 22.6377 25.6458 24.8522 25.2945C26.8877 24.9724 28.5882 24.0014 29.8925 22.3945C30.2192 21.9922 30.5443 21.715 31.0829 21.6034C31.9737 21.4183 32.5281 20.798 32.7648 19.9208C33.009 19.0158 32.7296 18.2434 32.0816 17.6021C32.0053 17.5315 31.9439 17.4463 31.9009 17.3516C31.858 17.2569 31.8343 17.1547 31.8314 17.0507C31.7729 16.2267 31.689 15.4093 31.4111 14.6242C31.3795 14.5109 31.3545 14.3958 31.3362 14.2796C31.6605 14.0953 31.7774 13.648 32.2262 13.66C32.4359 13.8249 32.4809 14.0496 32.5049 14.2706C32.5895 15.0385 32.6547 15.8086 32.7401 16.5765C32.8382 17.4605 32.9828 18.3355 33.4286 19.1237C33.7747 19.738 34.2414 20.2332 34.9089 20.4969C35.5457 20.7478 35.9577 20.4115 35.8566 19.7395C35.8491 19.69 35.8386 19.6413 35.8296 19.5896C35.6581 18.7658 35.7244 17.9102 36.0207 17.1227C36.1563 16.7631 36.2282 16.378 36.3128 15.9989C36.5346 15.0078 36.5241 13.9897 36.4597 12.985ZM17.1763 8.28107C16.7563 8.59156 16.375 8.95122 16.0406 9.35237C15.3978 10.1135 14.7895 10.9031 14.0568 11.5841C13.9429 11.689 13.8118 11.7759 13.6672 11.8883C13.6395 11.8081 13.611 11.7699 13.62 11.7452C13.8972 10.9586 14.1519 10.163 14.4643 9.38982C14.8217 8.50656 15.3633 7.72894 15.9627 6.99251C16.028 6.91701 16.0984 6.84593 16.1732 6.77975C16.8969 6.09202 17.5718 6.04857 18.327 6.6951C18.76 7.06518 19.1428 7.4937 19.5399 7.90349C19.6215 7.98815 19.668 8.10576 19.7512 8.24061L19.0769 8.57024L18.7638 8.338C18.2349 7.94619 17.7097 7.89225 17.1763 8.28107ZM17.3561 22.9286C16.8586 23.2088 16.7695 23.5961 16.7837 24.1138C16.8384 26.0804 16.1619 27.7682 14.8059 29.1999C13.7534 30.3109 12.4716 30.9716 10.9852 31.2503C10.5949 31.3252 10.1941 31.3417 9.86973 31.3777C7.94889 31.2848 6.31047 30.6989 4.98071 29.3609C4.54695 28.9249 4.14315 28.4724 3.84199 27.933C3.66669 27.6199 3.41197 27.4835 3.03365 27.5345C2.78523 27.5714 2.53161 27.5233 2.314 27.3979C2.09639 27.2725 1.92758 27.0772 1.83499 26.8438C1.74659 26.6025 1.73651 26.3395 1.80618 26.0921C1.87585 25.8448 2.02172 25.6257 2.22306 25.466C2.28176 25.4197 2.34472 25.3791 2.41109 25.3447C2.75346 25.1656 2.87033 24.8772 2.84561 24.5049C2.7205 22.6769 3.27038 21.0505 4.40086 19.6353C5.52011 18.2344 6.98921 17.3714 8.76697 17.1024C10.771 16.8028 12.5877 17.3069 14.1609 18.5678C14.782 19.0645 15.3423 19.6436 15.7342 20.359C15.9132 20.6872 16.1462 20.9029 16.5702 20.8445C17.1321 20.7696 17.6243 21.0647 17.8003 21.5449C17.9794 22.0424 17.8243 22.6649 17.3561 22.9286ZM31.5999 19.3994C31.5811 19.9844 31.1309 20.4609 30.5346 20.4264C29.9382 20.392 29.6131 20.6602 29.2917 21.1239C28.0646 22.8944 26.3712 23.8933 24.2117 24.1206C22.4137 24.3071 20.8127 23.8059 19.3481 22.7841C19.1533 22.6477 19.0679 22.4979 19.0919 22.2537C19.1599 21.6915 19.029 21.1232 18.7218 20.6475C18.366 20.0968 17.8655 19.7927 17.2527 19.6316L16.9755 19.5604C16.9238 19.4293 16.8571 19.296 16.8167 19.1559C16.6436 18.5565 16.5118 17.946 16.5507 17.3129C16.5635 17.1009 16.547 16.8882 16.5507 16.6762C16.5626 16.5194 16.5268 16.3627 16.4483 16.2265C16.3697 16.0903 16.2519 15.981 16.1102 15.9128C15.6892 15.6813 15.4824 15.3262 15.5027 14.8385C15.5059 14.5612 15.6164 14.296 15.8109 14.0985C16.0055 13.9009 16.2691 13.7865 16.5462 13.7792C16.5837 13.7792 16.6212 13.7792 16.6586 13.7792C17.213 13.7687 17.213 13.7687 17.6647 13.4046C19.6942 14.0129 21.6181 13.6735 23.4587 12.5805C23.5606 12.7303 23.6528 12.8405 23.7247 12.9656C24.0932 13.6037 24.5469 14.1886 25.0732 14.7044C25.8313 15.4535 26.7333 15.9315 27.7327 16.2499C28.0407 16.3515 28.3547 16.4341 28.6729 16.4971C28.7743 16.5174 28.8791 16.5125 28.9782 16.4829C29.0773 16.4532 29.1675 16.3996 29.2411 16.3269C29.3146 16.2542 29.3691 16.1645 29.3999 16.0658C29.4307 15.9671 29.4368 15.8623 29.4176 15.7607C29.3614 15.461 29.1486 15.3374 28.8767 15.261C28.4212 15.1329 27.9604 15.0138 27.5199 14.843C26.4479 14.4257 25.6328 13.6855 25.0282 12.7206C24.7867 12.3133 24.5706 11.8914 24.381 11.4575C24.1255 10.9069 23.7172 10.7893 23.2437 11.1766C22.0061 12.1917 20.5775 12.5281 19.0087 12.4164C18.8373 12.3945 18.667 12.364 18.4986 12.325C18.6746 12.0029 18.9196 11.7916 19.1661 11.5991C20.4029 10.6297 21.7964 10.1135 23.3846 10.094C24.6125 10.0798 25.7677 10.3188 26.8405 10.9061C28.9029 12.0381 30.1135 13.7807 30.4754 16.1008C30.5503 16.578 30.5503 17.0695 30.5548 17.5549C30.5585 17.9123 30.6679 18.167 30.996 18.3505C31.1875 18.448 31.3465 18.5991 31.4537 18.7853C31.5609 18.9715 31.6117 19.1848 31.5999 19.3994ZM35.2378 14.2773C35.1936 14.5972 35.2243 14.9291 35.1629 15.246C35.0595 15.8094 34.9201 16.366 34.7845 16.9234C34.6797 17.3564 34.5598 17.7849 34.4444 18.2157L34.3545 18.2419C34.2684 17.9355 34.1455 17.6336 34.1028 17.3212C34.0002 16.5683 33.953 15.8086 33.8511 15.055C33.7903 14.5244 33.6926 13.9987 33.5589 13.4817C33.3806 12.8405 32.9663 12.4074 32.164 12.4209C31.7834 12.4277 31.6635 12.2898 31.5047 11.7737C31.6823 11.5849 31.9392 11.5489 32.173 11.4927C32.7182 11.3557 33.2792 11.2914 33.8414 11.3017C34.3485 11.3114 34.6857 11.5616 34.9306 11.9759C34.9954 12.0831 35.0434 12.1996 35.073 12.3213C35.2288 12.9596 35.3299 13.6083 35.2378 14.2773ZM13.3586 26.8003C12.7945 27.8296 11.9419 28.4919 10.8054 28.7766C10.5625 28.8268 10.3169 28.8625 10.0698 28.8837C9.40151 28.853 8.82915 28.7399 8.295 28.4754C7.79831 28.2289 7.68668 27.7562 8.03729 27.4199C8.23432 27.2303 8.45981 27.2311 8.6988 27.3082C8.9595 27.3921 9.21497 27.4963 9.48017 27.5622C10.3926 27.7869 11.4857 27.3674 12.0221 26.5943C12.1359 26.431 12.2371 26.2572 12.3629 26.1036C12.5877 25.8264 12.9465 25.7605 13.1968 25.9328C13.4605 26.1163 13.5301 26.4909 13.3586 26.8003ZM14.4538 22.366C14.4456 23.0223 13.868 23.5931 13.232 23.5752C12.9136 23.5605 12.6135 23.4226 12.3951 23.1906C12.1766 22.9586 12.057 22.6507 12.0614 22.3321C12.0659 22.0135 12.1942 21.7091 12.419 21.4833C12.6439 21.2576 12.9478 21.1281 13.2664 21.1224C13.91 21.1337 14.4621 21.706 14.4538 22.369V22.366ZM7.24243 24.6457C7.24243 25.299 6.6431 25.8931 5.99433 25.8878C5.38301 25.8826 4.79193 25.2653 4.79567 24.6345C4.79942 24.0037 5.37028 23.4418 5.99433 23.4411C6.61838 23.4403 7.24243 24.0366 7.24243 24.6457ZM25.1623 21.0767C25.2184 21.211 25.2213 21.3617 25.1703 21.498C25.1194 21.6343 25.0185 21.7462 24.8881 21.8109C24.2753 22.1578 23.6078 22.2851 22.9096 22.2604C22.0623 22.2469 21.3364 21.9225 20.6734 21.4176C20.2456 21.0925 19.9609 20.6512 19.704 20.195C19.6612 20.1256 19.6331 20.0482 19.6212 19.9675C19.6094 19.8869 19.6142 19.8047 19.6352 19.7259C19.6562 19.6472 19.6931 19.5735 19.7436 19.5095C19.794 19.4455 19.857 19.3925 19.9287 19.3537C20.2359 19.1866 20.5475 19.2787 20.77 19.5941C20.9273 19.832 21.1026 20.0574 21.2944 20.2684C22.0541 21.046 23.1096 21.2423 24.1173 20.8108C24.2178 20.7613 24.3226 20.7209 24.4304 20.6902C24.5785 20.6562 24.7338 20.6765 24.8682 20.7474C25.0025 20.8184 25.1069 20.9353 25.1623 21.0767ZM19.907 17.1227C19.2702 17.1152 18.6664 16.5233 18.6649 15.9045C18.6715 15.5768 18.8066 15.2647 19.041 15.0355C19.2754 14.8063 19.5904 14.6782 19.9182 14.6789C20.24 14.6885 20.5453 14.8232 20.7692 15.0545C20.993 15.2858 21.1178 15.5954 21.1169 15.9173C21.1109 16.5211 20.5026 17.1294 19.907 17.1227ZM28.3882 18.2322C28.3882 18.8899 27.8256 19.4623 27.1836 19.457C26.8637 19.4491 26.5595 19.3165 26.3361 19.0874C26.1126 18.8584 25.9875 18.551 25.9875 18.231C25.9875 17.911 26.1126 17.6037 26.3361 17.3746C26.5595 17.1456 26.8637 17.0129 27.1836 17.005C27.8121 16.9983 28.389 17.5856 28.3882 18.2322Z"/>
</mask>
<path d="M36.4597 12.985C36.429 12.4973 36.2694 12.0044 36.0933 11.5429C35.9665 11.2313 35.7747 10.9504 35.5307 10.7188C35.025 10.2289 34.386 10.0161 33.684 10.0326C32.9701 10.0483 32.2606 10.1307 31.5864 10.3787C30.8194 10.664 30.037 10.9061 29.243 11.1039C27.1903 9.25722 24.7728 8.51106 21.9844 8.95157C21.8017 8.57427 21.516 8.25637 21.1603 8.03459C21.0727 7.97991 21.0232 7.86004 20.9625 7.76714C20.3437 6.82845 19.6036 6.01261 18.6469 5.40504C17.9599 4.96828 17.2347 4.88737 16.4616 5.14958C15.7664 5.38482 15.2629 5.87477 14.8299 6.42315C13.9377 7.56038 13.223 8.80173 12.8521 10.2146C12.6641 10.9316 12.3322 11.5631 11.7823 12.0696C11.6564 12.1908 11.5441 12.3255 11.4475 12.4711C11.1635 12.8824 11.3321 13.3409 11.8101 13.4623C12.2588 13.581 12.7308 13.581 13.1795 13.4623C13.9221 13.2678 14.5949 12.8679 15.1206 12.3086C15.8038 11.5841 16.4219 10.7975 17.0722 10.0423C17.2399 9.84103 17.4203 9.65061 17.6123 9.47223C17.8827 9.23025 18.0498 9.26397 18.2431 9.57786C18.4161 9.85955 18.4678 10.1772 18.5278 10.4986C18.4372 10.5918 18.3417 10.6801 18.2416 10.763C17.7724 11.1174 17.3629 11.5446 17.0287 12.0284C16.804 12.3468 16.5455 12.5288 16.1537 12.5827C15.652 12.6497 15.1914 12.8958 14.8569 13.2757C13.9646 14.2841 14.0103 15.6873 14.991 16.6072C15.3858 16.9773 15.2592 17.3744 15.2524 17.8673C14.4456 17.1871 13.638 16.6777 12.736 16.324C11.834 15.9704 10.8953 15.8348 9.89895 15.7449C9.95214 15.5622 9.99559 15.4355 10.0256 15.3052C10.1477 14.7725 10.1919 14.2414 9.93566 13.732C9.44346 12.7536 8.27028 12.2187 7.06862 12.9184C6.78081 13.0933 6.51496 13.3021 6.27676 13.5402C6.21536 13.5941 6.16536 13.6598 6.12967 13.7334C6.09399 13.8069 6.07334 13.8869 6.06894 13.9685C6.06455 14.0501 6.07649 14.1318 6.10407 14.2088C6.13165 14.2858 6.17432 14.3564 6.22956 14.4167C6.43034 14.6414 6.82889 14.6707 7.11807 14.4601C7.23326 14.366 7.34353 14.266 7.44845 14.1605C7.54519 14.0623 7.66107 13.985 7.78891 13.9335C7.91675 13.8819 8.05382 13.8572 8.19161 13.8608C8.57219 13.8758 8.94077 14.2699 8.88534 14.6422C8.78345 15.3247 8.50326 15.8933 7.68668 16.0806C6.31272 16.387 5.15002 17.1197 4.13566 18.0726C3.31016 18.8601 2.65998 19.8127 2.22755 20.8685C1.8275 21.8176 1.5608 22.8073 1.57503 23.8471C1.58028 24.2292 1.45442 24.5004 1.18622 24.7663C0.522462 25.4241 0.356898 26.2399 0.617606 27.1142C0.8903 28.0282 1.52559 28.5893 2.47477 28.7549C2.6164 28.7724 2.75273 28.8197 2.87485 28.8935C2.99697 28.9673 3.10214 29.0661 3.18348 29.1834C3.59085 29.7674 4.07862 30.291 4.63235 30.7386C6.38389 32.1418 8.3819 32.7756 10.6024 32.5561C12.8641 32.3313 14.7363 31.3072 16.1769 29.5325C16.8163 28.7458 17.3051 27.8481 17.619 26.8842C17.8895 26.0601 18.064 25.2218 18.0521 24.3505C18.0476 24.0651 18.127 23.8344 18.4266 23.7055C18.4704 23.7132 18.5134 23.7252 18.5547 23.7415C18.6193 23.7794 18.6818 23.8207 18.742 23.8651C20.5865 25.1641 22.6377 25.6458 24.8522 25.2945C26.8877 24.9724 28.5882 24.0014 29.8925 22.3945C30.2192 21.9922 30.5443 21.715 31.0829 21.6034C31.9737 21.4183 32.5281 20.798 32.7648 19.9208C33.009 19.0158 32.7296 18.2434 32.0816 17.6021C32.0053 17.5315 31.9439 17.4463 31.9009 17.3516C31.858 17.2569 31.8343 17.1547 31.8314 17.0507C31.7729 16.2267 31.689 15.4093 31.4111 14.6242C31.3795 14.5109 31.3545 14.3958 31.3362 14.2796C31.6605 14.0953 31.7774 13.648 32.2262 13.66C32.4359 13.8249 32.4809 14.0496 32.5049 14.2706C32.5895 15.0385 32.6547 15.8086 32.7401 16.5765C32.8382 17.4605 32.9828 18.3355 33.4286 19.1237C33.7747 19.738 34.2414 20.2332 34.9089 20.4969C35.5457 20.7478 35.9577 20.4115 35.8566 19.7395C35.8491 19.69 35.8386 19.6413 35.8296 19.5896C35.6581 18.7658 35.7244 17.9102 36.0207 17.1227C36.1563 16.7631 36.2282 16.378 36.3128 15.9989C36.5346 15.0078 36.5241 13.9897 36.4597 12.985ZM17.1763 8.28107C16.7563 8.59156 16.375 8.95122 16.0406 9.35237C15.3978 10.1135 14.7895 10.9031 14.0568 11.5841C13.9429 11.689 13.8118 11.7759 13.6672 11.8883C13.6395 11.8081 13.611 11.7699 13.62 11.7452C13.8972 10.9586 14.1519 10.163 14.4643 9.38982C14.8217 8.50656 15.3633 7.72894 15.9627 6.99251C16.028 6.91701 16.0984 6.84593 16.1732 6.77975C16.8969 6.09202 17.5718 6.04857 18.327 6.6951C18.76 7.06518 19.1428 7.4937 19.5399 7.90349C19.6215 7.98815 19.668 8.10576 19.7512 8.24061L19.0769 8.57024L18.7638 8.338C18.2349 7.94619 17.7097 7.89225 17.1763 8.28107ZM17.3561 22.9286C16.8586 23.2088 16.7695 23.5961 16.7837 24.1138C16.8384 26.0804 16.1619 27.7682 14.8059 29.1999C13.7534 30.3109 12.4716 30.9716 10.9852 31.2503C10.5949 31.3252 10.1941 31.3417 9.86973 31.3777C7.94889 31.2848 6.31047 30.6989 4.98071 29.3609C4.54695 28.9249 4.14315 28.4724 3.84199 27.933C3.66669 27.6199 3.41197 27.4835 3.03365 27.5345C2.78523 27.5714 2.53161 27.5233 2.314 27.3979C2.09639 27.2725 1.92758 27.0772 1.83499 26.8438C1.74659 26.6025 1.73651 26.3395 1.80618 26.0921C1.87585 25.8448 2.02172 25.6257 2.22306 25.466C2.28176 25.4197 2.34472 25.3791 2.41109 25.3447C2.75346 25.1656 2.87033 24.8772 2.84561 24.5049C2.7205 22.6769 3.27038 21.0505 4.40086 19.6353C5.52011 18.2344 6.98921 17.3714 8.76697 17.1024C10.771 16.8028 12.5877 17.3069 14.1609 18.5678C14.782 19.0645 15.3423 19.6436 15.7342 20.359C15.9132 20.6872 16.1462 20.9029 16.5702 20.8445C17.1321 20.7696 17.6243 21.0647 17.8003 21.5449C17.9794 22.0424 17.8243 22.6649 17.3561 22.9286ZM31.5999 19.3994C31.5811 19.9844 31.1309 20.4609 30.5346 20.4264C29.9382 20.392 29.6131 20.6602 29.2917 21.1239C28.0646 22.8944 26.3712 23.8933 24.2117 24.1206C22.4137 24.3071 20.8127 23.8059 19.3481 22.7841C19.1533 22.6477 19.0679 22.4979 19.0919 22.2537C19.1599 21.6915 19.029 21.1232 18.7218 20.6475C18.366 20.0968 17.8655 19.7927 17.2527 19.6316L16.9755 19.5604C16.9238 19.4293 16.8571 19.296 16.8167 19.1559C16.6436 18.5565 16.5118 17.946 16.5507 17.3129C16.5635 17.1009 16.547 16.8882 16.5507 16.6762C16.5626 16.5194 16.5268 16.3627 16.4483 16.2265C16.3697 16.0903 16.2519 15.981 16.1102 15.9128C15.6892 15.6813 15.4824 15.3262 15.5027 14.8385C15.5059 14.5612 15.6164 14.296 15.8109 14.0985C16.0055 13.9009 16.2691 13.7865 16.5462 13.7792C16.5837 13.7792 16.6212 13.7792 16.6586 13.7792C17.213 13.7687 17.213 13.7687 17.6647 13.4046C19.6942 14.0129 21.6181 13.6735 23.4587 12.5805C23.5606 12.7303 23.6528 12.8405 23.7247 12.9656C24.0932 13.6037 24.5469 14.1886 25.0732 14.7044C25.8313 15.4535 26.7333 15.9315 27.7327 16.2499C28.0407 16.3515 28.3547 16.4341 28.6729 16.4971C28.7743 16.5174 28.8791 16.5125 28.9782 16.4829C29.0773 16.4532 29.1675 16.3996 29.2411 16.3269C29.3146 16.2542 29.3691 16.1645 29.3999 16.0658C29.4307 15.9671 29.4368 15.8623 29.4176 15.7607C29.3614 15.461 29.1486 15.3374 28.8767 15.261C28.4212 15.1329 27.9604 15.0138 27.5199 14.843C26.4479 14.4257 25.6328 13.6855 25.0282 12.7206C24.7867 12.3133 24.5706 11.8914 24.381 11.4575C24.1255 10.9069 23.7172 10.7893 23.2437 11.1766C22.0061 12.1917 20.5775 12.5281 19.0087 12.4164C18.8373 12.3945 18.667 12.364 18.4986 12.325C18.6746 12.0029 18.9196 11.7916 19.1661 11.5991C20.4029 10.6297 21.7964 10.1135 23.3846 10.094C24.6125 10.0798 25.7677 10.3188 26.8405 10.9061C28.9029 12.0381 30.1135 13.7807 30.4754 16.1008C30.5503 16.578 30.5503 17.0695 30.5548 17.5549C30.5585 17.9123 30.6679 18.167 30.996 18.3505C31.1875 18.448 31.3465 18.5991 31.4537 18.7853C31.5609 18.9715 31.6117 19.1848 31.5999 19.3994ZM35.2378 14.2773C35.1936 14.5972 35.2243 14.9291 35.1629 15.246C35.0595 15.8094 34.9201 16.366 34.7845 16.9234C34.6797 17.3564 34.5598 17.7849 34.4444 18.2157L34.3545 18.2419C34.2684 17.9355 34.1455 17.6336 34.1028 17.3212C34.0002 16.5683 33.953 15.8086 33.8511 15.055C33.7903 14.5244 33.6926 13.9987 33.5589 13.4817C33.3806 12.8405 32.9663 12.4074 32.164 12.4209C31.7834 12.4277 31.6635 12.2898 31.5047 11.7737C31.6823 11.5849 31.9392 11.5489 32.173 11.4927C32.7182 11.3557 33.2792 11.2914 33.8414 11.3017C34.3485 11.3114 34.6857 11.5616 34.9306 11.9759C34.9954 12.0831 35.0434 12.1996 35.073 12.3213C35.2288 12.9596 35.3299 13.6083 35.2378 14.2773ZM13.3586 26.8003C12.7945 27.8296 11.9419 28.4919 10.8054 28.7766C10.5625 28.8268 10.3169 28.8625 10.0698 28.8837C9.40151 28.853 8.82915 28.7399 8.295 28.4754C7.79831 28.2289 7.68668 27.7562 8.03729 27.4199C8.23432 27.2303 8.45981 27.2311 8.6988 27.3082C8.9595 27.3921 9.21497 27.4963 9.48017 27.5622C10.3926 27.7869 11.4857 27.3674 12.0221 26.5943C12.1359 26.431 12.2371 26.2572 12.3629 26.1036C12.5877 25.8264 12.9465 25.7605 13.1968 25.9328C13.4605 26.1163 13.5301 26.4909 13.3586 26.8003ZM14.4538 22.366C14.4456 23.0223 13.868 23.5931 13.232 23.5752C12.9136 23.5605 12.6135 23.4226 12.3951 23.1906C12.1766 22.9586 12.057 22.6507 12.0614 22.3321C12.0659 22.0135 12.1942 21.7091 12.419 21.4833C12.6439 21.2576 12.9478 21.1281 13.2664 21.1224C13.91 21.1337 14.4621 21.706 14.4538 22.369V22.366ZM7.24243 24.6457C7.24243 25.299 6.6431 25.8931 5.99433 25.8878C5.38301 25.8826 4.79193 25.2653 4.79567 24.6345C4.79942 24.0037 5.37028 23.4418 5.99433 23.4411C6.61838 23.4403 7.24243 24.0366 7.24243 24.6457ZM25.1623 21.0767C25.2184 21.211 25.2213 21.3617 25.1703 21.498C25.1194 21.6343 25.0185 21.7462 24.8881 21.8109C24.2753 22.1578 23.6078 22.2851 22.9096 22.2604C22.0623 22.2469 21.3364 21.9225 20.6734 21.4176C20.2456 21.0925 19.9609 20.6512 19.704 20.195C19.6612 20.1256 19.6331 20.0482 19.6212 19.9675C19.6094 19.8869 19.6142 19.8047 19.6352 19.7259C19.6562 19.6472 19.6931 19.5735 19.7436 19.5095C19.794 19.4455 19.857 19.3925 19.9287 19.3537C20.2359 19.1866 20.5475 19.2787 20.77 19.5941C20.9273 19.832 21.1026 20.0574 21.2944 20.2684C22.0541 21.046 23.1096 21.2423 24.1173 20.8108C24.2178 20.7613 24.3226 20.7209 24.4304 20.6902C24.5785 20.6562 24.7338 20.6765 24.8682 20.7474C25.0025 20.8184 25.1069 20.9353 25.1623 21.0767ZM19.907 17.1227C19.2702 17.1152 18.6664 16.5233 18.6649 15.9045C18.6715 15.5768 18.8066 15.2647 19.041 15.0355C19.2754 14.8063 19.5904 14.6782 19.9182 14.6789C20.24 14.6885 20.5453 14.8232 20.7692 15.0545C20.993 15.2858 21.1178 15.5954 21.1169 15.9173C21.1109 16.5211 20.5026 17.1294 19.907 17.1227ZM28.3882 18.2322C28.3882 18.8899 27.8256 19.4623 27.1836 19.457C26.8637 19.4491 26.5595 19.3165 26.3361 19.0874C26.1126 18.8584 25.9875 18.551 25.9875 18.231C25.9875 17.911 26.1126 17.6037 26.3361 17.3746C26.5595 17.1456 26.8637 17.0129 27.1836 17.005C27.8121 16.9983 28.389 17.5856 28.3882 18.2322Z" fill="#838383"/>
<path d="M36.4597 12.985C36.429 12.4973 36.2694 12.0044 36.0933 11.5429C35.9665 11.2313 35.7747 10.9504 35.5307 10.7188C35.025 10.2289 34.386 10.0161 33.684 10.0326C32.9701 10.0483 32.2606 10.1307 31.5864 10.3787C30.8194 10.664 30.037 10.9061 29.243 11.1039C27.1903 9.25722 24.7728 8.51106 21.9844 8.95157C21.8017 8.57427 21.516 8.25637 21.1603 8.03459C21.0727 7.97991 21.0232 7.86004 20.9625 7.76714C20.3437 6.82845 19.6036 6.01261 18.6469 5.40504C17.9599 4.96828 17.2347 4.88737 16.4616 5.14958C15.7664 5.38482 15.2629 5.87477 14.8299 6.42315C13.9377 7.56038 13.223 8.80173 12.8521 10.2146C12.6641 10.9316 12.3322 11.5631 11.7823 12.0696C11.6564 12.1908 11.5441 12.3255 11.4475 12.4711C11.1635 12.8824 11.3321 13.3409 11.8101 13.4623C12.2588 13.581 12.7308 13.581 13.1795 13.4623C13.9221 13.2678 14.5949 12.8679 15.1206 12.3086C15.8038 11.5841 16.4219 10.7975 17.0722 10.0423C17.2399 9.84103 17.4203 9.65061 17.6123 9.47223C17.8827 9.23025 18.0498 9.26397 18.2431 9.57786C18.4161 9.85955 18.4678 10.1772 18.5278 10.4986C18.4372 10.5918 18.3417 10.6801 18.2416 10.763C17.7724 11.1174 17.3629 11.5446 17.0287 12.0284C16.804 12.3468 16.5455 12.5288 16.1537 12.5827C15.652 12.6497 15.1914 12.8958 14.8569 13.2757C13.9646 14.2841 14.0103 15.6873 14.991 16.6072C15.3858 16.9773 15.2592 17.3744 15.2524 17.8673C14.4456 17.1871 13.638 16.6777 12.736 16.324C11.834 15.9704 10.8953 15.8348 9.89895 15.7449C9.95214 15.5622 9.99559 15.4355 10.0256 15.3052C10.1477 14.7725 10.1919 14.2414 9.93566 13.732C9.44346 12.7536 8.27028 12.2187 7.06862 12.9184C6.78081 13.0933 6.51496 13.3021 6.27676 13.5402C6.21536 13.5941 6.16536 13.6598 6.12967 13.7334C6.09399 13.8069 6.07334 13.8869 6.06894 13.9685C6.06455 14.0501 6.07649 14.1318 6.10407 14.2088C6.13165 14.2858 6.17432 14.3564 6.22956 14.4167C6.43034 14.6414 6.82889 14.6707 7.11807 14.4601C7.23326 14.366 7.34353 14.266 7.44845 14.1605C7.54519 14.0623 7.66107 13.985 7.78891 13.9335C7.91675 13.8819 8.05382 13.8572 8.19161 13.8608C8.57219 13.8758 8.94077 14.2699 8.88534 14.6422C8.78345 15.3247 8.50326 15.8933 7.68668 16.0806C6.31272 16.387 5.15002 17.1197 4.13566 18.0726C3.31016 18.8601 2.65998 19.8127 2.22755 20.8685C1.8275 21.8176 1.5608 22.8073 1.57503 23.8471C1.58028 24.2292 1.45442 24.5004 1.18622 24.7663C0.522462 25.4241 0.356898 26.2399 0.617606 27.1142C0.8903 28.0282 1.52559 28.5893 2.47477 28.7549C2.6164 28.7724 2.75273 28.8197 2.87485 28.8935C2.99697 28.9673 3.10214 29.0661 3.18348 29.1834C3.59085 29.7674 4.07862 30.291 4.63235 30.7386C6.38389 32.1418 8.3819 32.7756 10.6024 32.5561C12.8641 32.3313 14.7363 31.3072 16.1769 29.5325C16.8163 28.7458 17.3051 27.8481 17.619 26.8842C17.8895 26.0601 18.064 25.2218 18.0521 24.3505C18.0476 24.0651 18.127 23.8344 18.4266 23.7055C18.4704 23.7132 18.5134 23.7252 18.5547 23.7415C18.6193 23.7794 18.6818 23.8207 18.742 23.8651C20.5865 25.1641 22.6377 25.6458 24.8522 25.2945C26.8877 24.9724 28.5882 24.0014 29.8925 22.3945C30.2192 21.9922 30.5443 21.715 31.0829 21.6034C31.9737 21.4183 32.5281 20.798 32.7648 19.9208C33.009 19.0158 32.7296 18.2434 32.0816 17.6021C32.0053 17.5315 31.9439 17.4463 31.9009 17.3516C31.858 17.2569 31.8343 17.1547 31.8314 17.0507C31.7729 16.2267 31.689 15.4093 31.4111 14.6242C31.3795 14.5109 31.3545 14.3958 31.3362 14.2796C31.6605 14.0953 31.7774 13.648 32.2262 13.66C32.4359 13.8249 32.4809 14.0496 32.5049 14.2706C32.5895 15.0385 32.6547 15.8086 32.7401 16.5765C32.8382 17.4605 32.9828 18.3355 33.4286 19.1237C33.7747 19.738 34.2414 20.2332 34.9089 20.4969C35.5457 20.7478 35.9577 20.4115 35.8566 19.7395C35.8491 19.69 35.8386 19.6413 35.8296 19.5896C35.6581 18.7658 35.7244 17.9102 36.0207 17.1227C36.1563 16.7631 36.2282 16.378 36.3128 15.9989C36.5346 15.0078 36.5241 13.9897 36.4597 12.985ZM17.1763 8.28107C16.7563 8.59156 16.375 8.95122 16.0406 9.35237C15.3978 10.1135 14.7895 10.9031 14.0568 11.5841C13.9429 11.689 13.8118 11.7759 13.6672 11.8883C13.6395 11.8081 13.611 11.7699 13.62 11.7452C13.8972 10.9586 14.1519 10.163 14.4643 9.38982C14.8217 8.50656 15.3633 7.72894 15.9627 6.99251C16.028 6.91701 16.0984 6.84593 16.1732 6.77975C16.8969 6.09202 17.5718 6.04857 18.327 6.6951C18.76 7.06518 19.1428 7.4937 19.5399 7.90349C19.6215 7.98815 19.668 8.10576 19.7512 8.24061L19.0769 8.57024L18.7638 8.338C18.2349 7.94619 17.7097 7.89225 17.1763 8.28107ZM17.3561 22.9286C16.8586 23.2088 16.7695 23.5961 16.7837 24.1138C16.8384 26.0804 16.1619 27.7682 14.8059 29.1999C13.7534 30.3109 12.4716 30.9716 10.9852 31.2503C10.5949 31.3252 10.1941 31.3417 9.86973 31.3777C7.94889 31.2848 6.31047 30.6989 4.98071 29.3609C4.54695 28.9249 4.14315 28.4724 3.84199 27.933C3.66669 27.6199 3.41197 27.4835 3.03365 27.5345C2.78523 27.5714 2.53161 27.5233 2.314 27.3979C2.09639 27.2725 1.92758 27.0772 1.83499 26.8438C1.74659 26.6025 1.73651 26.3395 1.80618 26.0921C1.87585 25.8448 2.02172 25.6257 2.22306 25.466C2.28176 25.4197 2.34472 25.3791 2.41109 25.3447C2.75346 25.1656 2.87033 24.8772 2.84561 24.5049C2.7205 22.6769 3.27038 21.0505 4.40086 19.6353C5.52011 18.2344 6.98921 17.3714 8.76697 17.1024C10.771 16.8028 12.5877 17.3069 14.1609 18.5678C14.782 19.0645 15.3423 19.6436 15.7342 20.359C15.9132 20.6872 16.1462 20.9029 16.5702 20.8445C17.1321 20.7696 17.6243 21.0647 17.8003 21.5449C17.9794 22.0424 17.8243 22.6649 17.3561 22.9286ZM31.5999 19.3994C31.5811 19.9844 31.1309 20.4609 30.5346 20.4264C29.9382 20.392 29.6131 20.6602 29.2917 21.1239C28.0646 22.8944 26.3712 23.8933 24.2117 24.1206C22.4137 24.3071 20.8127 23.8059 19.3481 22.7841C19.1533 22.6477 19.0679 22.4979 19.0919 22.2537C19.1599 21.6915 19.029 21.1232 18.7218 20.6475C18.366 20.0968 17.8655 19.7927 17.2527 19.6316L16.9755 19.5604C16.9238 19.4293 16.8571 19.296 16.8167 19.1559C16.6436 18.5565 16.5118 17.946 16.5507 17.3129C16.5635 17.1009 16.547 16.8882 16.5507 16.6762C16.5626 16.5194 16.5268 16.3627 16.4483 16.2265C16.3697 16.0903 16.2519 15.981 16.1102 15.9128C15.6892 15.6813 15.4824 15.3262 15.5027 14.8385C15.5059 14.5612 15.6164 14.296 15.8109 14.0985C16.0055 13.9009 16.2691 13.7865 16.5462 13.7792C16.5837 13.7792 16.6212 13.7792 16.6586 13.7792C17.213 13.7687 17.213 13.7687 17.6647 13.4046C19.6942 14.0129 21.6181 13.6735 23.4587 12.5805C23.5606 12.7303 23.6528 12.8405 23.7247 12.9656C24.0932 13.6037 24.5469 14.1886 25.0732 14.7044C25.8313 15.4535 26.7333 15.9315 27.7327 16.2499C28.0407 16.3515 28.3547 16.4341 28.6729 16.4971C28.7743 16.5174 28.8791 16.5125 28.9782 16.4829C29.0773 16.4532 29.1675 16.3996 29.2411 16.3269C29.3146 16.2542 29.3691 16.1645 29.3999 16.0658C29.4307 15.9671 29.4368 15.8623 29.4176 15.7607C29.3614 15.461 29.1486 15.3374 28.8767 15.261C28.4212 15.1329 27.9604 15.0138 27.5199 14.843C26.4479 14.4257 25.6328 13.6855 25.0282 12.7206C24.7867 12.3133 24.5706 11.8914 24.381 11.4575C24.1255 10.9069 23.7172 10.7893 23.2437 11.1766C22.0061 12.1917 20.5775 12.5281 19.0087 12.4164C18.8373 12.3945 18.667 12.364 18.4986 12.325C18.6746 12.0029 18.9196 11.7916 19.1661 11.5991C20.4029 10.6297 21.7964 10.1135 23.3846 10.094C24.6125 10.0798 25.7677 10.3188 26.8405 10.9061C28.9029 12.0381 30.1135 13.7807 30.4754 16.1008C30.5503 16.578 30.5503 17.0695 30.5548 17.5549C30.5585 17.9123 30.6679 18.167 30.996 18.3505C31.1875 18.448 31.3465 18.5991 31.4537 18.7853C31.5609 18.9715 31.6117 19.1848 31.5999 19.3994ZM35.2378 14.2773C35.1936 14.5972 35.2243 14.9291 35.1629 15.246C35.0595 15.8094 34.9201 16.366 34.7845 16.9234C34.6797 17.3564 34.5598 17.7849 34.4444 18.2157L34.3545 18.2419C34.2684 17.9355 34.1455 17.6336 34.1028 17.3212C34.0002 16.5683 33.953 15.8086 33.8511 15.055C33.7903 14.5244 33.6926 13.9987 33.5589 13.4817C33.3806 12.8405 32.9663 12.4074 32.164 12.4209C31.7834 12.4277 31.6635 12.2898 31.5047 11.7737C31.6823 11.5849 31.9392 11.5489 32.173 11.4927C32.7182 11.3557 33.2792 11.2914 33.8414 11.3017C34.3485 11.3114 34.6857 11.5616 34.9306 11.9759C34.9954 12.0831 35.0434 12.1996 35.073 12.3213C35.2288 12.9596 35.3299 13.6083 35.2378 14.2773ZM13.3586 26.8003C12.7945 27.8296 11.9419 28.4919 10.8054 28.7766C10.5625 28.8268 10.3169 28.8625 10.0698 28.8837C9.40151 28.853 8.82915 28.7399 8.295 28.4754C7.79831 28.2289 7.68668 27.7562 8.03729 27.4199C8.23432 27.2303 8.45981 27.2311 8.6988 27.3082C8.9595 27.3921 9.21497 27.4963 9.48017 27.5622C10.3926 27.7869 11.4857 27.3674 12.0221 26.5943C12.1359 26.431 12.2371 26.2572 12.3629 26.1036C12.5877 25.8264 12.9465 25.7605 13.1968 25.9328C13.4605 26.1163 13.5301 26.4909 13.3586 26.8003ZM14.4538 22.366C14.4456 23.0223 13.868 23.5931 13.232 23.5752C12.9136 23.5605 12.6135 23.4226 12.3951 23.1906C12.1766 22.9586 12.057 22.6507 12.0614 22.3321C12.0659 22.0135 12.1942 21.7091 12.419 21.4833C12.6439 21.2576 12.9478 21.1281 13.2664 21.1224C13.91 21.1337 14.4621 21.706 14.4538 22.369V22.366ZM7.24243 24.6457C7.24243 25.299 6.6431 25.8931 5.99433 25.8878C5.38301 25.8826 4.79193 25.2653 4.79567 24.6345C4.79942 24.0037 5.37028 23.4418 5.99433 23.4411C6.61838 23.4403 7.24243 24.0366 7.24243 24.6457ZM25.1623 21.0767C25.2184 21.211 25.2213 21.3617 25.1703 21.498C25.1194 21.6343 25.0185 21.7462 24.8881 21.8109C24.2753 22.1578 23.6078 22.2851 22.9096 22.2604C22.0623 22.2469 21.3364 21.9225 20.6734 21.4176C20.2456 21.0925 19.9609 20.6512 19.704 20.195C19.6612 20.1256 19.6331 20.0482 19.6212 19.9675C19.6094 19.8869 19.6142 19.8047 19.6352 19.7259C19.6562 19.6472 19.6931 19.5735 19.7436 19.5095C19.794 19.4455 19.857 19.3925 19.9287 19.3537C20.2359 19.1866 20.5475 19.2787 20.77 19.5941C20.9273 19.832 21.1026 20.0574 21.2944 20.2684C22.0541 21.046 23.1096 21.2423 24.1173 20.8108C24.2178 20.7613 24.3226 20.7209 24.4304 20.6902C24.5785 20.6562 24.7338 20.6765 24.8682 20.7474C25.0025 20.8184 25.1069 20.9353 25.1623 21.0767ZM19.907 17.1227C19.2702 17.1152 18.6664 16.5233 18.6649 15.9045C18.6715 15.5768 18.8066 15.2647 19.041 15.0355C19.2754 14.8063 19.5904 14.6782 19.9182 14.6789C20.24 14.6885 20.5453 14.8232 20.7692 15.0545C20.993 15.2858 21.1178 15.5954 21.1169 15.9173C21.1109 16.5211 20.5026 17.1294 19.907 17.1227ZM28.3882 18.2322C28.3882 18.8899 27.8256 19.4623 27.1836 19.457C26.8637 19.4491 26.5595 19.3165 26.3361 19.0874C26.1126 18.8584 25.9875 18.551 25.9875 18.231C25.9875 17.911 26.1126 17.6037 26.3361 17.3746C26.5595 17.1456 26.8637 17.0129 27.1836 17.005C27.8121 16.9983 28.389 17.5856 28.3882 18.2322Z" stroke="#838383" stroke-width="0.5" mask="url(#path-1-outside-1_180_1273)"/>
</svg>
