<svg width="37" height="37" viewBox="0 0 37 37" fill="none" xmlns="http://www.w3.org/2000/svg">
<path d="M32 9.5H20.63L25.565 4.565L24.5 3.5L18.5 9.5H18.455L12.455 3.5L11.42 4.565L16.34 9.5H5C3.35 9.5 2 10.85 2 12.5V30.5C2 32.15 3.35 33.5 5 33.5H32C33.65 33.5 35 32.15 35 30.5V12.5C35 10.85 33.65 9.5 32 9.5ZM32 30.5H5V12.5H32V30.5Z" fill="#838383"/>
<path d="M23.9 21.1536C24.1667 21.3075 24.1667 21.6925 23.9 21.8464L14.975 26.9993C14.7083 27.1532 14.375 26.9608 14.375 26.6529L14.375 16.3471C14.375 16.0392 14.7083 15.8468 14.975 16.0007L23.9 21.1536Z" fill="#838383"/>
</svg>
