<svg width="70" height="70" viewBox="0 0 70 70" fill="none" xmlns="http://www.w3.org/2000/svg">
<path fill-rule="evenodd" clip-rule="evenodd" d="M7.29167 0H62.7083C66.7327 0 70 3.26729 70 7.29167V62.7083C70 66.7327 66.7327 70 62.7083 70H7.29167C3.26729 70 0 66.7327 0 62.7083V7.29167C0 3.26729 3.26729 0 7.29167 0Z" fill="white"/>
<path fill-rule="evenodd" clip-rule="evenodd" d="M63.5377 0H6.46228C2.89325 0 0 2.89326 0 6.46228V63.5377C0 67.1067 2.89325 70 6.46228 70H63.5377C67.1067 70 70 67.1067 70 63.5377V6.46228C70 2.89326 67.1067 0 63.5377 0Z" fill="#D02028"/>
<path fill-rule="evenodd" clip-rule="evenodd" d="M61.4215 19.7556C59.9909 19.3837 58.2056 20.2736 57.8074 21.8998L53.3227 39.8758L49.2094 23.4204C49.1741 23.2304 49.0236 22.7035 49.0027 22.6737C48.674 21.792 48.084 21.0318 47.3113 20.4947C46.5386 19.9577 45.6202 19.6694 44.6793 19.6687C42.6947 19.6687 40.9909 20.9058 40.3528 22.6707C40.3475 22.6845 40.2713 22.9139 40.2411 23.0173C40.2371 23.0344 40.2289 23.0519 40.2251 23.0687L36.0447 39.9171C36.0447 39.9171 31.6072 22.1673 31.6024 22.1449L31.5878 22.0857C31.5878 22.0821 31.5822 22.0802 31.581 22.0768C31.4157 21.3981 31.0295 20.7937 30.4832 20.3582C29.9369 19.9229 29.2616 19.6814 28.5631 19.6716C28.5564 19.6716 28.5508 19.6687 28.5437 19.6687H23.5737C24.4715 20.2789 24.971 21.1687 25.1684 22.1973L26.1121 25.9639C26.1121 25.9639 31.5132 47.5503 31.518 47.5668C31.7996 48.5576 32.3965 49.4296 33.2183 50.0508C34.04 50.6719 35.0419 51.0081 36.0721 51.0087C38.1543 51.0087 39.8742 49.6351 40.5087 47.7656C40.5088 47.7655 40.5089 47.7654 40.5089 47.7653L44.6761 31.0618C44.6761 31.0618 48.7445 47.5726 48.7989 47.5867C49.3742 49.5551 51.1632 51.008 53.3179 51.008C54.4175 51.0073 55.4825 50.624 56.3307 49.924C57.1787 49.2239 57.757 48.2507 57.9662 47.1711L63.8602 23.4564C64.2589 21.8302 63.0239 20.1711 61.4215 19.7556Z" fill="white"/>
<path fill-rule="evenodd" clip-rule="evenodd" d="M4.55957 22.8151C4.55957 24.7116 6.17355 25.9622 7.62381 25.9622H14.3109L14.3266 47.8212C14.3221 48.2368 14.4001 48.6492 14.5561 49.0345C14.712 49.4198 14.9426 49.7704 15.235 50.066C15.5273 50.3615 15.8755 50.5961 16.259 50.7562C16.6427 50.9163 17.0543 50.9987 17.4699 50.9987C17.8855 50.9987 18.2971 50.9163 18.6808 50.7562C19.0643 50.5961 19.4123 50.3615 19.7046 50.066C19.9968 49.7704 20.2276 49.4198 20.3835 49.0345C20.5396 48.6492 20.6175 48.2368 20.613 47.8212L20.5973 25.9632H25.3394L24.3859 22.1367C24.3859 22.1367 23.881 19.5798 20.9849 19.6686H7.56988C6.11959 19.6679 4.55957 20.9937 4.55957 22.8151Z" fill="white"/>
</svg>
