<svg width="24" height="42" viewBox="0 0 24 42" fill="none" xmlns="http://www.w3.org/2000/svg">
<path fill-rule="evenodd" clip-rule="evenodd" d="M19.1331 0H4.94424C2.53201 0 0.482422 1.96687 0.482422 4.37846V37.6266C0.482422 40.0381 2.48868 42 4.90092 42L19.1131 41.9847C21.525 41.9847 23.4982 40.0224 23.4982 37.6106L23.5188 4.37611C23.5185 1.95589 21.555 0 19.1331 0ZM9.9889 2.62504H14.1055C14.4671 2.62504 14.7617 2.9186 14.7617 3.28121C14.7617 3.64385 14.4671 3.93741 14.1055 3.93741H9.9889C9.62634 3.93741 9.33274 3.64385 9.33274 3.28121C9.33274 2.9186 9.62634 2.62504 9.9889 2.62504ZM8.44398 2.83388C8.20114 2.5877 7.75842 2.59103 7.51523 2.83388C7.39415 2.9553 7.32477 3.12578 7.32511 3.29992C7.32511 3.47073 7.39415 3.6412 7.51523 3.76263C7.64033 3.88439 7.80747 3.95613 7.98128 3.95613C8.15175 3.95613 8.3229 3.88439 8.44398 3.76263C8.56575 3.64086 8.63778 3.47073 8.63778 3.29992C8.63778 3.12578 8.56575 2.9553 8.44398 2.83388ZM2.77921 35.4368H21.4819V6.23455H2.77921V35.4368ZM11.9148 40.6993C10.8319 40.6993 9.95122 39.818 9.95122 38.7355C9.95122 37.6526 10.8319 36.7716 11.9148 36.7716C12.9977 36.7716 13.8783 37.6526 13.8783 38.7355C13.8783 39.818 12.9973 40.6993 11.9148 40.6993Z" fill="#F2F2F2"/>
</svg>
