<svg width="37" height="37" viewBox="0 0 37 37" fill="none" xmlns="http://www.w3.org/2000/svg">
<path fill-rule="evenodd" clip-rule="evenodd" d="M27.3026 16.2181C27.4443 21.7001 23.1151 26.2591 17.6331 26.4008C12.1511 26.5424 7.59214 22.2132 7.45046 16.7311C7.30879 11.2491 11.638 6.69019 17.12 6.54851C22.6021 6.40683 27.161 10.736 27.3026 16.2181ZM27.4102 24.6295C29.2898 22.3191 30.3846 19.3514 30.3016 16.1406C30.1172 9.00221 24.1809 3.36503 17.0425 3.54951C9.90417 3.73399 4.26698 9.67028 4.45147 16.8086C4.63595 23.947 10.5722 29.5842 17.7106 29.3998C20.5877 29.3254 23.2209 28.3167 25.3274 26.6715C25.3962 26.7865 25.4817 26.8942 25.5838 26.9909L31.4934 32.5883C32.0948 33.158 33.0442 33.1322 33.6139 32.5307C34.1836 31.9293 34.1578 30.9799 33.5564 30.4102L27.6468 24.8128C27.5728 24.7427 27.4935 24.6816 27.4102 24.6295Z" fill="#838383"/>
</svg>
