<svg width="37" height="37" viewBox="0 0 37 37" fill="none" xmlns="http://www.w3.org/2000/svg">
<path fill-rule="evenodd" clip-rule="evenodd" d="M3.5 9.5H6.5V30.5H27.5V33.5H6.5C4.85 33.5 3.5 32.15 3.5 30.5V9.5ZM12.5 3.5H30.5C32.15 3.5 33.5 4.85 33.5 6.5V24.5C33.5 26.15 32.15 27.5 30.5 27.5H12.5C10.85 27.5 9.5 26.15 9.5 24.5V6.5C9.5 4.85 10.85 3.5 12.5 3.5ZM26.4 15.5964C26.6667 15.4425 26.6667 15.0575 26.4 14.9036L17.475 9.75074C17.2083 9.59678 16.875 9.78923 16.875 10.0971L16.875 20.4029C16.875 20.7108 17.2083 20.9032 17.475 20.7493L26.4 15.5964Z" fill="#838383"/>
</svg>
