<svg width="37" height="36" viewBox="0 0 37 36" fill="none" xmlns="http://www.w3.org/2000/svg">
<path fill-rule="evenodd" clip-rule="evenodd" d="M19.4241 3H17.5716C16.5282 3 15.5279 3.40733 14.7919 4.13186C14.1396 4.77405 13.7406 5.62074 13.6636 6.52171L13.6509 6.81271C13.6366 7.76028 12.8711 8.49952 11.9315 8.49942C11.7184 8.4972 11.4971 8.44857 11.2934 8.35695L11.0935 8.25257C9.24733 7.21525 6.84693 7.85064 5.76377 9.69249L4.78984 11.2604C3.75424 13.0207 4.26501 15.2321 5.93673 16.3711L6.16922 16.5173C6.74223 16.8426 7.0698 17.3984 7.0698 18C7.0698 18.5532 6.79237 19.0705 6.32968 19.3843L6.17172 19.4812C4.43977 20.4618 3.75736 22.6262 4.62795 24.4267L4.75519 24.6663L5.71119 26.2836C6.20809 27.1625 7.05959 27.8245 8.06668 28.1049C8.9593 28.3535 9.9119 28.2848 10.7564 27.9126L11.0235 27.782C11.4729 27.5274 11.9373 27.4664 12.3731 27.5806C12.8089 27.6949 13.18 27.975 13.4041 28.3586C13.5276 28.5628 13.6001 28.7733 13.6259 28.9915L13.6387 29.213C13.6365 31.2739 15.3983 33 17.5716 33H19.4246C21.4767 33 23.1799 31.4555 23.3465 29.4621L23.3587 29.2047C23.3575 28.7068 23.5373 28.2786 23.8591 27.9633C24.1809 27.6481 24.6179 27.4719 25.073 27.4741C25.2822 27.4798 25.512 27.5311 25.7249 27.6244L25.9291 27.7274C27.6516 28.7016 29.9087 28.2012 31.0713 26.5633L31.2204 26.3355L32.2099 24.7206C32.7426 23.825 32.8868 22.7726 32.6178 21.7845C32.3795 20.9087 31.833 20.1446 31.0765 19.6261L30.8261 19.4689C30.3909 19.2224 30.1039 18.8562 29.987 18.4266C29.8701 17.9969 29.9328 17.5394 30.1612 17.1552C30.2877 16.9389 30.4559 16.7588 30.6577 16.621L31.0436 16.3834C32.6065 15.3439 33.1918 13.2978 32.3691 11.5776L32.2838 11.4101C32.2654 11.3664 32.244 11.3238 32.2198 11.2826L31.3 9.71892C30.2767 7.97877 28.0639 7.30346 26.2189 8.15325L25.9732 8.27758C25.5323 8.53031 25.0668 8.5942 24.6285 8.48271C24.1902 8.37122 23.8152 8.09351 23.5862 7.71082C23.4686 7.51674 23.3961 7.30619 23.3703 7.08803L23.3575 6.86649C23.3898 5.92452 22.9887 4.91521 22.2474 4.16807C21.5061 3.42092 20.4877 2.99957 19.4241 3ZM17.5716 5.17162H19.4246C19.8895 5.17143 20.3343 5.35545 20.6581 5.68175C20.9818 6.00805 21.157 6.44886 21.1436 6.90374L21.1633 7.28182C21.2303 7.85977 21.4035 8.36257 21.6771 8.81425C22.2009 9.68948 23.0634 10.3282 24.0714 10.5846C25.0795 10.8411 26.1502 10.6941 27.0475 10.1762L27.2022 10.099L27.3687 10.0337C28.1012 9.7928 28.9646 10.0976 29.3795 10.8031L30.2567 12.2959L30.2757 12.3379L30.3818 12.5383C30.7367 13.2826 30.4401 14.2241 29.672 14.6642L29.4309 14.813C28.9195 15.161 28.5273 15.5807 28.2419 16.0689C27.7206 16.9456 27.5764 17.998 27.8453 18.9861C28.0898 19.8844 28.6574 20.6622 29.4383 21.1793L29.8468 21.4322C30.1349 21.631 30.3725 21.9633 30.4761 22.344C30.5931 22.7737 30.5304 23.2312 30.3019 23.6154L29.3353 25.1936L29.2266 25.3601C28.7794 25.9887 27.897 26.2222 27.1531 25.9022L26.6791 25.6651C26.1505 25.432 25.6334 25.3166 25.1079 25.3029C24.037 25.2975 23.0318 25.7027 22.2918 26.4278C21.5517 27.1529 21.1381 28.1377 21.1432 29.1631L21.1347 29.3267C21.0648 30.1535 20.3205 30.8284 19.4246 30.8284H17.5716C16.6857 30.8284 15.9564 30.1717 15.863 29.3281L15.8328 28.7977C15.7658 28.2198 15.5927 27.717 15.319 27.2653C14.8104 26.3939 13.9529 25.7468 12.946 25.4828C11.9392 25.2189 10.8664 25.3599 9.96617 25.8745L9.8031 25.9527C9.4785 26.0946 9.06244 26.1246 8.67261 26.0161C8.23278 25.8936 7.8609 25.6045 7.63925 25.2126L6.69538 23.6174L6.61095 23.4575C6.25341 22.716 6.55028 21.7744 7.31955 21.3384L7.55326 21.1944C8.65116 20.4511 9.28629 19.2668 9.28629 18C9.28629 16.7144 8.63292 15.52 7.5559 14.8065L7.16483 14.5639C6.47382 14.092 6.25063 13.1257 6.6969 12.3668L7.67083 10.7989C8.15733 9.97224 9.20567 9.69474 10.0278 10.1563L10.3164 10.3054C10.8553 10.5494 11.3838 10.6655 11.9199 10.671C13.9995 10.6712 15.7001 9.10632 15.8552 7.11226L15.8754 6.65492C15.9058 6.31112 16.0794 5.94295 16.363 5.66374C16.683 5.34872 17.1179 5.17162 17.5716 5.17162ZM18.5051 13.0977C15.7417 13.0977 13.5015 15.2925 13.5015 18C13.5015 20.7074 15.7417 22.9023 18.5051 22.9023C21.2685 22.9023 23.5087 20.7074 23.5087 18C23.5087 15.2925 21.2685 13.0977 18.5051 13.0977ZM18.505 15.2693C20.0443 15.2693 21.2922 16.4919 21.2922 18C21.2922 19.5081 20.0443 20.7307 18.505 20.7307C16.9657 20.7307 15.7179 19.5081 15.7179 18C15.7179 16.4919 16.9657 15.2693 18.505 15.2693Z" fill="#9B9B9B"/>
</svg>
