<svg width="176" height="15" viewBox="0 0 176 15" fill="none" xmlns="http://www.w3.org/2000/svg">
<path fill-rule="evenodd" clip-rule="evenodd" d="M175.186 0C175.201 0 175.216 0.00612342 175.227 0.0170135C175.238 0.0279037 175.244 0.042674 175.244 0.058075V14.2537C175.244 14.2691 175.238 14.2839 175.227 14.2948C175.216 14.3056 175.201 14.3118 175.186 14.3118H173.472V0.058075C173.472 0.042674 173.478 0.0279037 173.489 0.0170135C173.5 0.00612342 173.514 0 173.53 0H175.186Z" fill="white"/>
<path fill-rule="evenodd" clip-rule="evenodd" d="M2.62061 0.000488281C2.63601 0.000488281 2.65073 0.0066117 2.66162 0.0175018C2.67251 0.028392 2.67859 0.0431623 2.67859 0.0585632V14.3122H0.964355C0.948955 14.3122 0.934108 14.3061 0.923218 14.2952C0.912328 14.2844 0.90625 14.2696 0.90625 14.2542V0.0585632C0.90625 0.0431623 0.912328 0.028392 0.923218 0.0175018C0.934108 0.0066117 0.948955 0.000488281 0.964355 0.000488281H2.62061Z" fill="white"/>
<path fill-rule="evenodd" clip-rule="evenodd" d="M173.626 14.3119L2.52417 14.312V12.5396L173.626 12.5396V14.3119Z" fill="white"/>
</svg>
