<svg width="19" height="18" viewBox="0 0 19 18" fill="none" xmlns="http://www.w3.org/2000/svg">
<path d="M10.3066 5.88873C10.3066 5.47451 9.97081 5.13873 9.5566 5.13873C9.14239 5.13873 8.8066 5.47451 8.8066 5.88873H10.3066ZM12.8899 10.1943C13.3041 10.1943 13.6399 9.8585 13.6399 9.44428C13.6399 9.03007 13.3041 8.69428 12.8899 8.69428V10.1943ZM15.1399 8.99984C15.1399 12.0834 12.6402 14.5832 9.5566 14.5832V16.0832C13.4686 16.0832 16.6399 12.9119 16.6399 8.99984H15.1399ZM9.5566 14.5832C6.47301 14.5832 3.97327 12.0834 3.97327 8.99984H2.47327C2.47327 12.9119 5.64458 16.0832 9.5566 16.0832V14.5832ZM3.97327 8.99984C3.97327 5.91625 6.47301 3.4165 9.5566 3.4165V1.9165C5.64458 1.9165 2.47327 5.08782 2.47327 8.99984H3.97327ZM9.5566 3.4165C12.6402 3.4165 15.1399 5.91625 15.1399 8.99984H16.6399C16.6399 5.08782 13.4686 1.9165 9.5566 1.9165V3.4165ZM8.8066 5.88873V9.33317H10.3066V5.88873H8.8066ZM8.8066 9.33317C8.8066 9.47171 8.84199 9.66282 8.97017 9.84084C9.12589 10.0571 9.37883 10.1943 9.66771 10.1943V8.69428C9.75256 8.69428 9.85433 8.71279 9.9567 8.76559C10.0585 8.81809 10.1346 8.89097 10.1875 8.96439C10.2823 9.09612 10.3066 9.23167 10.3066 9.33317H8.8066ZM9.66771 10.1943C9.66788 10.1943 9.66807 10.1943 9.66825 10.1943C9.66844 10.1943 9.66864 10.1943 9.66884 10.1943C9.66905 10.1943 9.66926 10.1943 9.66948 10.1943C9.6697 10.1943 9.66993 10.1943 9.67016 10.1943C9.67039 10.1943 9.67064 10.1943 9.67089 10.1943C9.67114 10.1943 9.67139 10.1943 9.67166 10.1943C9.67192 10.1943 9.67219 10.1943 9.67247 10.1943C9.67275 10.1943 9.67304 10.1943 9.67334 10.1943C9.67363 10.1943 9.67393 10.1943 9.67424 10.1943C9.67455 10.1943 9.67487 10.1943 9.67519 10.1943C9.67552 10.1943 9.67585 10.1943 9.67619 10.1943C9.67653 10.1943 9.67688 10.1943 9.67723 10.1943C9.67758 10.1943 9.67795 10.1943 9.67831 10.1943C9.67868 10.1943 9.67906 10.1943 9.67944 10.1943C9.67983 10.1943 9.68022 10.1943 9.68062 10.1943C9.68101 10.1943 9.68142 10.1943 9.68183 10.1943C9.68224 10.1943 9.68266 10.1943 9.68309 10.1943C9.68352 10.1943 9.68395 10.1943 9.6844 10.1943C9.68484 10.1943 9.68529 10.1943 9.68574 10.1943C9.6862 10.1943 9.68666 10.1943 9.68713 10.1943C9.6876 10.1943 9.68808 10.1943 9.68857 10.1943C9.68905 10.1943 9.68955 10.1943 9.69004 10.1943C9.69054 10.1943 9.69105 10.1943 9.69157 10.1943C9.69208 10.1943 9.6926 10.1943 9.69313 10.1943C9.69366 10.1943 9.69419 10.1943 9.69473 10.1943C9.69528 10.1943 9.69582 10.1943 9.69638 10.1943C9.69694 10.1943 9.6975 10.1943 9.69807 10.1943C9.69864 10.1943 9.69922 10.1943 9.6998 10.1943C9.70039 10.1943 9.70098 10.1943 9.70158 10.1943C9.70218 10.1943 9.70278 10.1943 9.70339 10.1943C9.70401 10.1943 9.70463 10.1943 9.70525 10.1943C9.70588 10.1943 9.70651 10.1943 9.70715 10.1943C9.70779 10.1943 9.70844 10.1943 9.7091 10.1943C9.70975 10.1943 9.71041 10.1943 9.71108 10.1943C9.71175 10.1943 9.71242 10.1943 9.7131 10.1943C9.71378 10.1943 9.71447 10.1943 9.71517 10.1943C9.71586 10.1943 9.71657 10.1943 9.71727 10.1943C9.71798 10.1943 9.7187 10.1943 9.71942 10.1943C9.72014 10.1943 9.72087 10.1943 9.72161 10.1943C9.72235 10.1943 9.72309 10.1943 9.72384 10.1943C9.72459 10.1943 9.72535 10.1943 9.72611 10.1943C9.72687 10.1943 9.72764 10.1943 9.72842 10.1943C9.72919 10.1943 9.72998 10.1943 9.73077 10.1943C9.73156 10.1943 9.73235 10.1943 9.73316 10.1943C9.73396 10.1943 9.73477 10.1943 9.73559 10.1943C9.7364 10.1943 9.73723 10.1943 9.73806 10.1943C9.73889 10.1943 9.73972 10.1943 9.74057 10.1943C9.74141 10.1943 9.74226 10.1943 9.74311 10.1943C9.74397 10.1943 9.74483 10.1943 9.7457 10.1943C9.74657 10.1943 9.74745 10.1943 9.74833 10.1943C9.74921 10.1943 9.7501 10.1943 9.751 10.1943C9.75189 10.1943 9.75279 10.1943 9.7537 10.1943C9.75461 10.1943 9.75552 10.1943 9.75644 10.1943C9.75737 10.1943 9.75829 10.1943 9.75923 10.1943C9.76016 10.1943 9.7611 10.1943 9.76205 10.1943C9.763 10.1943 9.76395 10.1943 9.76491 10.1943C9.76587 10.1943 9.76683 10.1943 9.76781 10.1943C9.76878 10.1943 9.76976 10.1943 9.77074 10.1943C9.77173 10.1943 9.77272 10.1943 9.77372 10.1943C9.77471 10.1943 9.77572 10.1943 9.77673 10.1943C9.77774 10.1943 9.77876 10.1943 9.77978 10.1943C9.7808 10.1943 9.78183 10.1943 9.78287 10.1943C9.7839 10.1943 9.78494 10.1943 9.78599 10.1943C9.78704 10.1943 9.78809 10.1943 9.78915 10.1943C9.79021 10.1943 9.79128 10.1943 9.79235 10.1943C9.79342 10.1943 9.7945 10.1943 9.79559 10.1943C9.79667 10.1943 9.79776 10.1943 9.79886 10.1943C9.79996 10.1943 9.80106 10.1943 9.80217 10.1943C9.80328 10.1943 9.8044 10.1943 9.80552 10.1943C9.80664 10.1943 9.80777 10.1943 9.8089 10.1943C9.81003 10.1943 9.81117 10.1943 9.81232 10.1943C9.81347 10.1943 9.81462 10.1943 9.81577 10.1943C9.81693 10.1943 9.8181 10.1943 9.81927 10.1943C9.82044 10.1943 9.82161 10.1943 9.82279 10.1943C9.82398 10.1943 9.82516 10.1943 9.82636 10.1943C9.82755 10.1943 9.82875 10.1943 9.82996 10.1943C9.83116 10.1943 9.83237 10.1943 9.83359 10.1943C9.83481 10.1943 9.83603 10.1943 9.83726 10.1943C9.83849 10.1943 9.83973 10.1943 9.84097 10.1943C9.84221 10.1943 9.84345 10.1943 9.84471 10.1943C9.84596 10.1943 9.84722 10.1943 9.84848 10.1943C9.84975 10.1943 9.85102 10.1943 9.85229 10.1943C9.85357 10.1943 9.85485 10.1943 9.85614 10.1943C9.85742 10.1943 9.85872 10.1943 9.86002 10.1943C9.86131 10.1943 9.86262 10.1943 9.86393 10.1943C9.86524 10.1943 9.86656 10.1943 9.86788 10.1943C9.8692 10.1943 9.87053 10.1943 9.87186 10.1943C9.87319 10.1943 9.87453 10.1943 9.87588 10.1943C9.87722 10.1943 9.87857 10.1943 9.87993 10.1943C9.88128 10.1943 9.88264 10.1943 9.88401 10.1943C9.88538 10.1943 9.88675 10.1943 9.88813 10.1943C9.88951 10.1943 9.89089 10.1943 9.89228 10.1943C9.89367 10.1943 9.89506 10.1943 9.89646 10.1943C9.89786 10.1943 9.89927 10.1943 9.90068 10.1943C9.90209 10.1943 9.90351 10.1943 9.90493 10.1943C9.90635 10.1943 9.90778 10.1943 9.90921 10.1943C9.91065 10.1943 9.91209 10.1943 9.91353 10.1943C9.91498 10.1943 9.91643 10.1943 9.91788 10.1943C9.91934 10.1943 9.9208 10.1943 9.92226 10.1943C9.92373 10.1943 9.9252 10.1943 9.92668 10.1943C9.92815 10.1943 9.92963 10.1943 9.93112 10.1943C9.93261 10.1943 9.9341 10.1943 9.9356 10.1943C9.9371 10.1943 9.9386 10.1943 9.94011 10.1943C9.94162 10.1943 9.94313 10.1943 9.94465 10.1943C9.94617 10.1943 9.9477 10.1943 9.94923 10.1943C9.95076 10.1943 9.95229 10.1943 9.95383 10.1943C9.95537 10.1943 9.95692 10.1943 9.95847 10.1943C9.96002 10.1943 9.96157 10.1943 9.96314 10.1943C9.9647 10.1943 9.96626 10.1943 9.96783 10.1943C9.96941 10.1943 9.97098 10.1943 9.97256 10.1943C9.97415 10.1943 9.97573 10.1943 9.97732 10.1943C9.97892 10.1943 9.98051 10.1943 9.98212 10.1943C9.98372 10.1943 9.98533 10.1943 9.98694 10.1943C9.98855 10.1943 9.99017 10.1943 9.99179 10.1943C9.99341 10.1943 9.99504 10.1943 9.99667 10.1943C9.99831 10.1943 9.99995 10.1943 10.0016 10.1943C10.0032 10.1943 10.0049 10.1943 10.0065 10.1943C10.0082 10.1943 10.0098 10.1943 10.0115 10.1943C10.0132 10.1943 10.0148 10.1943 10.0165 10.1943C10.0182 10.1943 10.0199 10.1943 10.0215 10.1943C10.0232 10.1943 10.0249 10.1943 10.0266 10.1943C10.0283 10.1943 10.03 10.1943 10.0317 10.1943C10.0334 10.1943 10.0351 10.1943 10.0368 10.1943C10.0385 10.1943 10.0402 10.1943 10.042 10.1943C10.0437 10.1943 10.0454 10.1943 10.0471 10.1943C10.0489 10.1943 10.0506 10.1943 10.0523 10.1943C10.0541 10.1943 10.0558 10.1943 10.0576 10.1943C10.0593 10.1943 10.0611 10.1943 10.0628 10.1943C10.0646 10.1943 10.0664 10.1943 10.0681 10.1943C10.0699 10.1943 10.0717 10.1943 10.0735 10.1943C10.0752 10.1943 10.077 10.1943 10.0788 10.1943C10.0806 10.1943 10.0824 10.1943 10.0842 10.1943C10.086 10.1943 10.0878 10.1943 10.0896 10.1943C10.0914 10.1943 10.0932 10.1943 10.095 10.1943C10.0968 10.1943 10.0987 10.1943 10.1005 10.1943C10.1023 10.1943 10.1041 10.1943 10.106 10.1943C10.1078 10.1943 10.1097 10.1943 10.1115 10.1943C10.1133 10.1943 10.1152 10.1943 10.117 10.1943C10.1189 10.1943 10.1207 10.1943 10.1226 10.1943C10.1245 10.1943 10.1263 10.1943 10.1282 10.1943C10.1301 10.1943 10.1319 10.1943 10.1338 10.1943C10.1357 10.1943 10.1376 10.1943 10.1395 10.1943C10.1414 10.1943 10.1433 10.1943 10.1452 10.1943C10.147 10.1943 10.1489 10.1943 10.1509 10.1943C10.1528 10.1943 10.1547 10.1943 10.1566 10.1943C10.1585 10.1943 10.1604 10.1943 10.1623 10.1943C10.1643 10.1943 10.1662 10.1943 10.1681 10.1943C10.17 10.1943 10.172 10.1943 10.1739 10.1943C10.1759 10.1943 10.1778 10.1943 10.1798 10.1943C10.1817 10.1943 10.1837 10.1943 10.1856 10.1943C10.1876 10.1943 10.1895 10.1943 10.1915 10.1943C10.1935 10.1943 10.1954 10.1943 10.1974 10.1943C10.1994 10.1943 10.2014 10.1943 10.2033 10.1943C10.2053 10.1943 10.2073 10.1943 10.2093 10.1943C10.2113 10.1943 10.2133 10.1943 10.2153 10.1943C10.2173 10.1943 10.2193 10.1943 10.2213 10.1943C10.2233 10.1943 10.2253 10.1943 10.2273 10.1943C10.2293 10.1943 10.2314 10.1943 10.2334 10.1943C10.2354 10.1943 10.2374 10.1943 10.2395 10.1943C10.2415 10.1943 10.2435 10.1943 10.2456 10.1943C10.2476 10.1943 10.2496 10.1943 10.2517 10.1943C10.2537 10.1943 10.2558 10.1943 10.2578 10.1943C10.2599 10.1943 10.262 10.1943 10.264 10.1943C10.2661 10.1943 10.2682 10.1943 10.2702 10.1943C10.2723 10.1943 10.2744 10.1943 10.2764 10.1943C10.2785 10.1943 10.2806 10.1943 10.2827 10.1943C10.2848 10.1943 10.2869 10.1943 10.289 10.1943C10.2911 10.1943 10.2932 10.1943 10.2953 10.1943C10.2974 10.1943 10.2995 10.1943 10.3016 10.1943C10.3037 10.1943 10.3058 10.1943 10.3079 10.1943C10.31 10.1943 10.3122 10.1943 10.3143 10.1943C10.3164 10.1943 10.3185 10.1943 10.3207 10.1943C10.3228 10.1943 10.3249 10.1943 10.3271 10.1943C10.3292 10.1943 10.3314 10.1943 10.3335 10.1943C10.3356 10.1943 10.3378 10.1943 10.34 10.1943C10.3421 10.1943 10.3443 10.1943 10.3464 10.1943C10.3486 10.1943 10.3507 10.1943 10.3529 10.1943C10.3551 10.1943 10.3573 10.1943 10.3594 10.1943C10.3616 10.1943 10.3638 10.1943 10.366 10.1943C10.3682 10.1943 10.3703 10.1943 10.3725 10.1943C10.3747 10.1943 10.3769 10.1943 10.3791 10.1943C10.3813 10.1943 10.3835 10.1943 10.3857 10.1943C10.3879 10.1943 10.3901 10.1943 10.3923 10.1943C10.3945 10.1943 10.3968 10.1943 10.399 10.1943C10.4012 10.1943 10.4034 10.1943 10.4056 10.1943C10.4079 10.1943 10.4101 10.1943 10.4123 10.1943C10.4146 10.1943 10.4168 10.1943 10.419 10.1943C10.4213 10.1943 10.4235 10.1943 10.4258 10.1943C10.428 10.1943 10.4303 10.1943 10.4325 10.1943C10.4348 10.1943 10.437 10.1943 10.4393 10.1943C10.4415 10.1943 10.4438 10.1943 10.4461 10.1943C10.4483 10.1943 10.4506 10.1943 10.4529 10.1943C10.4551 10.1943 10.4574 10.1943 10.4597 10.1943C10.462 10.1943 10.4643 10.1943 10.4665 10.1943C10.4688 10.1943 10.4711 10.1943 10.4734 10.1943C10.4757 10.1943 10.478 10.1943 10.4803 10.1943C10.4826 10.1943 10.4849 10.1943 10.4872 10.1943C10.4895 10.1943 10.4918 10.1943 10.4941 10.1943C10.4964 10.1943 10.4987 10.1943 10.501 10.1943C10.5034 10.1943 10.5057 10.1943 10.508 10.1943C10.5103 10.1943 10.5127 10.1943 10.515 10.1943C10.5173 10.1943 10.5196 10.1943 10.522 10.1943C10.5243 10.1943 10.5267 10.1943 10.529 10.1943C10.5313 10.1943 10.5337 10.1943 10.536 10.1943C10.5384 10.1943 10.5407 10.1943 10.5431 10.1943C10.5454 10.1943 10.5478 10.1943 10.5501 10.1943C10.5525 10.1943 10.5549 10.1943 10.5572 10.1943C10.5596 10.1943 10.562 10.1943 10.5643 10.1943C10.5667 10.1943 10.5691 10.1943 10.5715 10.1943C10.5738 10.1943 10.5762 10.1943 10.5786 10.1943C10.581 10.1943 10.5834 10.1943 10.5857 10.1943C10.5881 10.1943 10.5905 10.1943 10.5929 10.1943C10.5953 10.1943 10.5977 10.1943 10.6001 10.1943C10.6025 10.1943 10.6049 10.1943 10.6073 10.1943C10.6097 10.1943 10.6121 10.1943 10.6145 10.1943C10.6169 10.1943 10.6194 10.1943 10.6218 10.1943C10.6242 10.1943 10.6266 10.1943 10.629 10.1943C10.6315 10.1943 10.6339 10.1943 10.6363 10.1943C10.6387 10.1943 10.6412 10.1943 10.6436 10.1943C10.646 10.1943 10.6485 10.1943 10.6509 10.1943C10.6533 10.1943 10.6558 10.1943 10.6582 10.1943C10.6607 10.1943 10.6631 10.1943 10.6655 10.1943C10.668 10.1943 10.6704 10.1943 10.6729 10.1943C10.6754 10.1943 10.6778 10.1943 10.6803 10.1943C10.6827 10.1943 10.6852 10.1943 10.6876 10.1943C10.6901 10.1943 10.6926 10.1943 10.695 10.1943C10.6975 10.1943 10.7 10.1943 10.7025 10.1943C10.7049 10.1943 10.7074 10.1943 10.7099 10.1943C10.7124 10.1943 10.7148 10.1943 10.7173 10.1943C10.7198 10.1943 10.7223 10.1943 10.7248 10.1943C10.7273 10.1943 10.7298 10.1943 10.7322 10.1943C10.7347 10.1943 10.7372 10.1943 10.7397 10.1943C10.7422 10.1943 10.7447 10.1943 10.7472 10.1943C10.7497 10.1943 10.7522 10.1943 10.7547 10.1943C10.7572 10.1943 10.7598 10.1943 10.7623 10.1943C10.7648 10.1943 10.7673 10.1943 10.7698 10.1943C10.7723 10.1943 10.7748 10.1943 10.7774 10.1943C10.7799 10.1943 10.7824 10.1943 10.7849 10.1943C10.7874 10.1943 10.79 10.1943 10.7925 10.1943C10.795 10.1943 10.7976 10.1943 10.8001 10.1943C10.8026 10.1943 10.8052 10.1943 10.8077 10.1943C10.8102 10.1943 10.8128 10.1943 10.8153 10.1943C10.8179 10.1943 10.8204 10.1943 10.823 10.1943C10.8255 10.1943 10.828 10.1943 10.8306 10.1943C10.8331 10.1943 10.8357 10.1943 10.8383 10.1943C10.8408 10.1943 10.8434 10.1943 10.8459 10.1943C10.8485 10.1943 10.851 10.1943 10.8536 10.1943C10.8562 10.1943 10.8587 10.1943 10.8613 10.1943C10.8639 10.1943 10.8664 10.1943 10.869 10.1943C10.8716 10.1943 10.8741 10.1943 10.8767 10.1943C10.8793 10.1943 10.8819 10.1943 10.8845 10.1943C10.887 10.1943 10.8896 10.1943 10.8922 10.1943C10.8948 10.1943 10.8974 10.1943 10.8999 10.1943C10.9025 10.1943 10.9051 10.1943 10.9077 10.1943C10.9103 10.1943 10.9129 10.1943 10.9155 10.1943C10.9181 10.1943 10.9207 10.1943 10.9233 10.1943C10.9259 10.1943 10.9285 10.1943 10.9311 10.1943C10.9337 10.1943 10.9363 10.1943 10.9389 10.1943C10.9415 10.1943 10.9441 10.1943 10.9467 10.1943C10.9493 10.1943 10.9519 10.1943 10.9545 10.1943C10.9571 10.1943 10.9597 10.1943 10.9624 10.1943C10.965 10.1943 10.9676 10.1943 10.9702 10.1943C10.9728 10.1943 10.9754 10.1943 10.9781 10.1943C10.9807 10.1943 10.9833 10.1943 10.9859 10.1943C10.9886 10.1943 10.9912 10.1943 10.9938 10.1943C10.9964 10.1943 10.9991 10.1943 11.0017 10.1943C11.0043 10.1943 11.007 10.1943 11.0096 10.1943C11.0122 10.1943 11.0149 10.1943 11.0175 10.1943C11.0201 10.1943 11.0228 10.1943 11.0254 10.1943C11.0281 10.1943 11.0307 10.1943 11.0333 10.1943C11.036 10.1943 11.0386 10.1943 11.0413 10.1943C11.0439 10.1943 11.0466 10.1943 11.0492 10.1943C11.0519 10.1943 11.0545 10.1943 11.0572 10.1943C11.0598 10.1943 11.0625 10.1943 11.0651 10.1943C11.0678 10.1943 11.0704 10.1943 11.0731 10.1943C11.0758 10.1943 11.0784 10.1943 11.0811 10.1943C11.0837 10.1943 11.0864 10.1943 11.0891 10.1943C11.0917 10.1943 11.0944 10.1943 11.097 10.1943C11.0997 10.1943 11.1024 10.1943 11.105 10.1943C11.1077 10.1943 11.1104 10.1943 11.1131 10.1943C11.1157 10.1943 11.1184 10.1943 11.1211 10.1943C11.1237 10.1943 11.1264 10.1943 11.1291 10.1943C11.1318 10.1943 11.1344 10.1943 11.1371 10.1943C11.1398 10.1943 11.1425 10.1943 11.1452 10.1943C11.1478 10.1943 11.1505 10.1943 11.1532 10.1943C11.1559 10.1943 11.1586 10.1943 11.1613 10.1943C11.1639 10.1943 11.1666 10.1943 11.1693 10.1943C11.172 10.1943 11.1747 10.1943 11.1774 10.1943C11.1801 10.1943 11.1828 10.1943 11.1855 10.1943C11.1881 10.1943 11.1908 10.1943 11.1935 10.1943C11.1962 10.1943 11.1989 10.1943 11.2016 10.1943C11.2043 10.1943 11.207 10.1943 11.2097 10.1943C11.2124 10.1943 11.2151 10.1943 11.2178 10.1943C11.2205 10.1943 11.2232 10.1943 11.2259 10.1943C11.2286 10.1943 11.2313 10.1943 11.234 10.1943C11.2367 10.1943 11.2394 10.1943 11.2421 10.1943C11.2448 10.1943 11.2475 10.1943 11.2502 10.1943C11.2529 10.1943 11.2556 10.1943 11.2584 10.1943C11.2611 10.1943 11.2638 10.1943 11.2665 10.1943C11.2692 10.1943 11.2719 10.1943 11.2746 10.1943C11.2773 10.1943 11.28 10.1943 11.2828 10.1943C11.2855 10.1943 11.2882 10.1943 11.2909 10.1943C11.2936 10.1943 11.2963 10.1943 11.299 10.1943C11.3018 10.1943 11.3045 10.1943 11.3072 10.1943C11.3099 10.1943 11.3126 10.1943 11.3154 10.1943C11.3181 10.1943 11.3208 10.1943 11.3235 10.1943C11.3262 10.1943 11.329 10.1943 11.3317 10.1943C11.3344 10.1943 11.3371 10.1943 11.3398 10.1943C11.3426 10.1943 11.3453 10.1943 11.348 10.1943C11.3507 10.1943 11.3535 10.1943 11.3562 10.1943C11.3589 10.1943 11.3616 10.1943 11.3644 10.1943C11.3671 10.1943 11.3698 10.1943 11.3726 10.1943C11.3753 10.1943 11.378 10.1943 11.3807 10.1943C11.3835 10.1943 11.3862 10.1943 11.3889 10.1943C11.3917 10.1943 11.3944 10.1943 11.3971 10.1943C11.3998 10.1943 11.4026 10.1943 11.4053 10.1943C11.408 10.1943 11.4108 10.1943 11.4135 10.1943C11.4162 10.1943 11.419 10.1943 11.4217 10.1943C11.4244 10.1943 11.4272 10.1943 11.4299 10.1943C11.4326 10.1943 11.4354 10.1943 11.4381 10.1943C11.4408 10.1943 11.4436 10.1943 11.4463 10.1943C11.4491 10.1943 11.4518 10.1943 11.4545 10.1943C11.4573 10.1943 11.46 10.1943 11.4627 10.1943C11.4655 10.1943 11.4682 10.1943 11.4709 10.1943C11.4737 10.1943 11.4764 10.1943 11.4792 10.1943C11.4819 10.1943 11.4846 10.1943 11.4874 10.1943C11.4901 10.1943 11.4928 10.1943 11.4956 10.1943C11.4983 10.1943 11.5011 10.1943 11.5038 10.1943C11.5065 10.1943 11.5093 10.1943 11.512 10.1943C11.5148 10.1943 11.5175 10.1943 11.5202 10.1943C11.523 10.1943 11.5257 10.1943 11.5285 10.1943C11.5312 10.1943 11.5339 10.1943 11.5367 10.1943C11.5394 10.1943 11.5422 10.1943 11.5449 10.1943C11.5476 10.1943 11.5504 10.1943 11.5531 10.1943C11.5559 10.1943 11.5586 10.1943 11.5613 10.1943C11.5641 10.1943 11.5668 10.1943 11.5696 10.1943C11.5723 10.1943 11.575 10.1943 11.5778 10.1943C11.5805 10.1943 11.5833 10.1943 11.586 10.1943C11.5887 10.1943 11.5915 10.1943 11.5942 10.1943C11.597 10.1943 11.5997 10.1943 11.6024 10.1943C11.6052 10.1943 11.6079 10.1943 11.6107 10.1943C11.6134 10.1943 11.6161 10.1943 11.6189 10.1943C11.6216 10.1943 11.6243 10.1943 11.6271 10.1943C11.6298 10.1943 11.6326 10.1943 11.6353 10.1943C11.638 10.1943 11.6408 10.1943 11.6435 10.1943C11.6463 10.1943 11.649 10.1943 11.6517 10.1943C11.6545 10.1943 11.6572 10.1943 11.6599 10.1943C11.6627 10.1943 11.6654 10.1943 11.6681 10.1943C11.6709 10.1943 11.6736 10.1943 11.6764 10.1943C11.6791 10.1943 11.6818 10.1943 11.6846 10.1943C11.6873 10.1943 11.69 10.1943 11.6928 10.1943C11.6955 10.1943 11.6982 10.1943 11.701 10.1943C11.7037 10.1943 11.7064 10.1943 11.7092 10.1943C11.7119 10.1943 11.7146 10.1943 11.7174 10.1943C11.7201 10.1943 11.7228 10.1943 11.7256 10.1943C11.7283 10.1943 11.731 10.1943 11.7338 10.1943C11.7365 10.1943 11.7392 10.1943 11.7419 10.1943C11.7447 10.1943 11.7474 10.1943 11.7501 10.1943C11.7529 10.1943 11.7556 10.1943 11.7583 10.1943C11.761 10.1943 11.7638 10.1943 11.7665 10.1943C11.7692 10.1943 11.7719 10.1943 11.7747 10.1943C11.7774 10.1943 11.7801 10.1943 11.7828 10.1943C11.7856 10.1943 11.7883 10.1943 11.791 10.1943C11.7937 10.1943 11.7965 10.1943 11.7992 10.1943C11.8019 10.1943 11.8046 10.1943 11.8073 10.1943C11.8101 10.1943 11.8128 10.1943 11.8155 10.1943C11.8182 10.1943 11.8209 10.1943 11.8236 10.1943C11.8264 10.1943 11.8291 10.1943 11.8318 10.1943C11.8345 10.1943 11.8372 10.1943 11.8399 10.1943C11.8426 10.1943 11.8454 10.1943 11.8481 10.1943C11.8508 10.1943 11.8535 10.1943 11.8562 10.1943C11.8589 10.1943 11.8616 10.1943 11.8643 10.1943C11.867 10.1943 11.8698 10.1943 11.8725 10.1943C11.8752 10.1943 11.8779 10.1943 11.8806 10.1943C11.8833 10.1943 11.886 10.1943 11.8887 10.1943C11.8914 10.1943 11.8941 10.1943 11.8968 10.1943C11.8995 10.1943 11.9022 10.1943 11.9049 10.1943C11.9076 10.1943 11.9103 10.1943 11.913 10.1943C11.9157 10.1943 11.9184 10.1943 11.9211 10.1943C11.9238 10.1943 11.9265 10.1943 11.9292 10.1943C11.9319 10.1943 11.9346 10.1943 11.9373 10.1943C11.94 10.1943 11.9426 10.1943 11.9453 10.1943C11.948 10.1943 11.9507 10.1943 11.9534 10.1943C11.9561 10.1943 11.9588 10.1943 11.9615 10.1943C11.9641 10.1943 11.9668 10.1943 11.9695 10.1943C11.9722 10.1943 11.9749 10.1943 11.9776 10.1943C11.9802 10.1943 11.9829 10.1943 11.9856 10.1943C11.9883 10.1943 11.991 10.1943 11.9936 10.1943C11.9963 10.1943 11.999 10.1943 12.0017 10.1943C12.0043 10.1943 12.007 10.1943 12.0097 10.1943C12.0123 10.1943 12.015 10.1943 12.0177 10.1943C12.0204 10.1943 12.023 10.1943 12.0257 10.1943C12.0284 10.1943 12.031 10.1943 12.0337 10.1943C12.0363 10.1943 12.039 10.1943 12.0417 10.1943C12.0443 10.1943 12.047 10.1943 12.0496 10.1943C12.0523 10.1943 12.055 10.1943 12.0576 10.1943C12.0603 10.1943 12.0629 10.1943 12.0656 10.1943C12.0682 10.1943 12.0709 10.1943 12.0735 10.1943C12.0762 10.1943 12.0788 10.1943 12.0815 10.1943C12.0841 10.1943 12.0868 10.1943 12.0894 10.1943C12.0921 10.1943 12.0947 10.1943 12.0973 10.1943C12.1 10.1943 12.1026 10.1943 12.1053 10.1943C12.1079 10.1943 12.1105 10.1943 12.1132 10.1943C12.1158 10.1943 12.1184 10.1943 12.1211 10.1943C12.1237 10.1943 12.1263 10.1943 12.129 10.1943C12.1316 10.1943 12.1342 10.1943 12.1368 10.1943C12.1395 10.1943 12.1421 10.1943 12.1447 10.1943C12.1473 10.1943 12.15 10.1943 12.1526 10.1943C12.1552 10.1943 12.1578 10.1943 12.1604 10.1943C12.163 10.1943 12.1657 10.1943 12.1683 10.1943C12.1709 10.1943 12.1735 10.1943 12.1761 10.1943C12.1787 10.1943 12.1813 10.1943 12.1839 10.1943C12.1865 10.1943 12.1891 10.1943 12.1917 10.1943C12.1943 10.1943 12.1969 10.1943 12.1995 10.1943C12.2021 10.1943 12.2047 10.1943 12.2073 10.1943C12.2099 10.1943 12.2125 10.1943 12.2151 10.1943C12.2177 10.1943 12.2203 10.1943 12.2229 10.1943C12.2254 10.1943 12.228 10.1943 12.2306 10.1943C12.2332 10.1943 12.2358 10.1943 12.2384 10.1943C12.2409 10.1943 12.2435 10.1943 12.2461 10.1943C12.2487 10.1943 12.2512 10.1943 12.2538 10.1943C12.2564 10.1943 12.259 10.1943 12.2615 10.1943C12.2641 10.1943 12.2667 10.1943 12.2692 10.1943C12.2718 10.1943 12.2743 10.1943 12.2769 10.1943C12.2795 10.1943 12.282 10.1943 12.2846 10.1943C12.2871 10.1943 12.2897 10.1943 12.2922 10.1943C12.2948 10.1943 12.2973 10.1943 12.2999 10.1943C12.3024 10.1943 12.305 10.1943 12.3075 10.1943C12.3101 10.1943 12.3126 10.1943 12.3151 10.1943C12.3177 10.1943 12.3202 10.1943 12.3228 10.1943C12.3253 10.1943 12.3278 10.1943 12.3304 10.1943C12.3329 10.1943 12.3354 10.1943 12.3379 10.1943C12.3405 10.1943 12.343 10.1943 12.3455 10.1943C12.348 10.1943 12.3505 10.1943 12.3531 10.1943C12.3556 10.1943 12.3581 10.1943 12.3606 10.1943C12.3631 10.1943 12.3656 10.1943 12.3681 10.1943C12.3706 10.1943 12.3732 10.1943 12.3757 10.1943C12.3782 10.1943 12.3807 10.1943 12.3832 10.1943C12.3857 10.1943 12.3882 10.1943 12.3906 10.1943C12.3931 10.1943 12.3956 10.1943 12.3981 10.1943C12.4006 10.1943 12.4031 10.1943 12.4056 10.1943C12.4081 10.1943 12.4105 10.1943 12.413 10.1943C12.4155 10.1943 12.418 10.1943 12.4205 10.1943C12.4229 10.1943 12.4254 10.1943 12.4279 10.1943C12.4303 10.1943 12.4328 10.1943 12.4353 10.1943C12.4377 10.1943 12.4402 10.1943 12.4427 10.1943C12.4451 10.1943 12.4476 10.1943 12.45 10.1943C12.4525 10.1943 12.4549 10.1943 12.4574 10.1943C12.4598 10.1943 12.4623 10.1943 12.4647 10.1943C12.4672 10.1943 12.4696 10.1943 12.472 10.1943C12.4745 10.1943 12.4769 10.1943 12.4794 10.1943C12.4818 10.1943 12.4842 10.1943 12.4866 10.1943C12.4891 10.1943 12.4915 10.1943 12.4939 10.1943C12.4963 10.1943 12.4988 10.1943 12.5012 10.1943C12.5036 10.1943 12.506 10.1943 12.5084 10.1943C12.5108 10.1943 12.5132 10.1943 12.5157 10.1943C12.5181 10.1943 12.5205 10.1943 12.5229 10.1943C12.5253 10.1943 12.5277 10.1943 12.5301 10.1943C12.5325 10.1943 12.5348 10.1943 12.5372 10.1943C12.5396 10.1943 12.542 10.1943 12.5444 10.1943C12.5468 10.1943 12.5492 10.1943 12.5515 10.1943C12.5539 10.1943 12.5563 10.1943 12.5587 10.1943C12.561 10.1943 12.5634 10.1943 12.5658 10.1943C12.5681 10.1943 12.5705 10.1943 12.5729 10.1943C12.5752 10.1943 12.5776 10.1943 12.5799 10.1943C12.5823 10.1943 12.5846 10.1943 12.587 10.1943C12.5893 10.1943 12.5917 10.1943 12.594 10.1943C12.5964 10.1943 12.5987 10.1943 12.601 10.1943C12.6034 10.1943 12.6057 10.1943 12.6081 10.1943C12.6104 10.1943 12.6127 10.1943 12.615 10.1943C12.6174 10.1943 12.6197 10.1943 12.622 10.1943C12.6243 10.1943 12.6266 10.1943 12.6289 10.1943C12.6313 10.1943 12.6336 10.1943 12.6359 10.1943C12.6382 10.1943 12.6405 10.1943 12.6428 10.1943C12.6451 10.1943 12.6474 10.1943 12.6497 10.1943C12.652 10.1943 12.6543 10.1943 12.6565 10.1943C12.6588 10.1943 12.6611 10.1943 12.6634 10.1943C12.6657 10.1943 12.6679 10.1943 12.6702 10.1943C12.6725 10.1943 12.6748 10.1943 12.677 10.1943C12.6793 10.1943 12.6816 10.1943 12.6838 10.1943C12.6861 10.1943 12.6883 10.1943 12.6906 10.1943C12.6929 10.1943 12.6951 10.1943 12.6973 10.1943C12.6996 10.1943 12.7018 10.1943 12.7041 10.1943C12.7063 10.1943 12.7086 10.1943 12.7108 10.1943C12.713 10.1943 12.7153 10.1943 12.7175 10.1943C12.7197 10.1943 12.7219 10.1943 12.7242 10.1943C12.7264 10.1943 12.7286 10.1943 12.7308 10.1943C12.733 10.1943 12.7352 10.1943 12.7374 10.1943C12.7396 10.1943 12.7418 10.1943 12.744 10.1943C12.7462 10.1943 12.7484 10.1943 12.7506 10.1943C12.7528 10.1943 12.755 10.1943 12.7572 10.1943C12.7594 10.1943 12.7616 10.1943 12.7637 10.1943C12.7659 10.1943 12.7681 10.1943 12.7703 10.1943C12.7724 10.1943 12.7746 10.1943 12.7768 10.1943C12.7789 10.1943 12.7811 10.1943 12.7832 10.1943C12.7854 10.1943 12.7876 10.1943 12.7897 10.1943C12.7919 10.1943 12.794 10.1943 12.7961 10.1943C12.7983 10.1943 12.8004 10.1943 12.8026 10.1943C12.8047 10.1943 12.8068 10.1943 12.8089 10.1943C12.8111 10.1943 12.8132 10.1943 12.8153 10.1943C12.8174 10.1943 12.8195 10.1943 12.8217 10.1943C12.8238 10.1943 12.8259 10.1943 12.828 10.1943C12.8301 10.1943 12.8322 10.1943 12.8343 10.1943C12.8364 10.1943 12.8385 10.1943 12.8406 10.1943C12.8426 10.1943 12.8447 10.1943 12.8468 10.1943C12.8489 10.1943 12.851 10.1943 12.853 10.1943C12.8551 10.1943 12.8572 10.1943 12.8593 10.1943C12.8613 10.1943 12.8634 10.1943 12.8654 10.1943C12.8675 10.1943 12.8695 10.1943 12.8716 10.1943C12.8736 10.1943 12.8757 10.1943 12.8777 10.1943C12.8798 10.1943 12.8818 10.1943 12.8838 10.1943C12.8859 10.1943 12.8879 10.1943 12.8899 10.1943V8.69428C12.8879 8.69428 12.8859 8.69428 12.8838 8.69428C12.8818 8.69428 12.8798 8.69428 12.8777 8.69428C12.8757 8.69428 12.8736 8.69428 12.8716 8.69428C12.8695 8.69428 12.8675 8.69428 12.8654 8.69428C12.8634 8.69428 12.8613 8.69428 12.8593 8.69428C12.8572 8.69428 12.8551 8.69428 12.853 8.69428C12.851 8.69428 12.8489 8.69428 12.8468 8.69428C12.8447 8.69428 12.8426 8.69428 12.8406 8.69428C12.8385 8.69428 12.8364 8.69428 12.8343 8.69428C12.8322 8.69428 12.8301 8.69428 12.828 8.69428C12.8259 8.69428 12.8238 8.69428 12.8217 8.69428C12.8195 8.69428 12.8174 8.69428 12.8153 8.69428C12.8132 8.69428 12.8111 8.69428 12.8089 8.69428C12.8068 8.69428 12.8047 8.69428 12.8026 8.69428C12.8004 8.69428 12.7983 8.69428 12.7961 8.69428C12.794 8.69428 12.7919 8.69428 12.7897 8.69428C12.7876 8.69428 12.7854 8.69428 12.7832 8.69428C12.7811 8.69428 12.7789 8.69428 12.7768 8.69428C12.7746 8.69428 12.7724 8.69428 12.7703 8.69428C12.7681 8.69428 12.7659 8.69428 12.7637 8.69428C12.7616 8.69428 12.7594 8.69428 12.7572 8.69428C12.755 8.69428 12.7528 8.69428 12.7506 8.69428C12.7484 8.69428 12.7462 8.69428 12.744 8.69428C12.7418 8.69428 12.7396 8.69428 12.7374 8.69428C12.7352 8.69428 12.733 8.69428 12.7308 8.69428C12.7286 8.69428 12.7264 8.69428 12.7242 8.69428C12.7219 8.69428 12.7197 8.69428 12.7175 8.69428C12.7153 8.69428 12.713 8.69428 12.7108 8.69428C12.7086 8.69428 12.7063 8.69428 12.7041 8.69428C12.7018 8.69428 12.6996 8.69428 12.6973 8.69428C12.6951 8.69428 12.6929 8.69428 12.6906 8.69428C12.6883 8.69428 12.6861 8.69428 12.6838 8.69428C12.6816 8.69428 12.6793 8.69428 12.677 8.69428C12.6748 8.69428 12.6725 8.69428 12.6702 8.69428C12.6679 8.69428 12.6657 8.69428 12.6634 8.69428C12.6611 8.69428 12.6588 8.69428 12.6565 8.69428C12.6543 8.69428 12.652 8.69428 12.6497 8.69428C12.6474 8.69428 12.6451 8.69428 12.6428 8.69428C12.6405 8.69428 12.6382 8.69428 12.6359 8.69428C12.6336 8.69428 12.6313 8.69428 12.6289 8.69428C12.6266 8.69428 12.6243 8.69428 12.622 8.69428C12.6197 8.69428 12.6174 8.69428 12.615 8.69428C12.6127 8.69428 12.6104 8.69428 12.6081 8.69428C12.6057 8.69428 12.6034 8.69428 12.601 8.69428C12.5987 8.69428 12.5964 8.69428 12.594 8.69428C12.5917 8.69428 12.5893 8.69428 12.587 8.69428C12.5846 8.69428 12.5823 8.69428 12.5799 8.69428C12.5776 8.69428 12.5752 8.69428 12.5729 8.69428C12.5705 8.69428 12.5681 8.69428 12.5658 8.69428C12.5634 8.69428 12.561 8.69428 12.5587 8.69428C12.5563 8.69428 12.5539 8.69428 12.5515 8.69428C12.5492 8.69428 12.5468 8.69428 12.5444 8.69428C12.542 8.69428 12.5396 8.69428 12.5372 8.69428C12.5348 8.69428 12.5325 8.69428 12.5301 8.69428C12.5277 8.69428 12.5253 8.69428 12.5229 8.69428C12.5205 8.69428 12.5181 8.69428 12.5157 8.69428C12.5132 8.69428 12.5108 8.69428 12.5084 8.69428C12.506 8.69428 12.5036 8.69428 12.5012 8.69428C12.4988 8.69428 12.4963 8.69428 12.4939 8.69428C12.4915 8.69428 12.4891 8.69428 12.4866 8.69428C12.4842 8.69428 12.4818 8.69428 12.4794 8.69428C12.4769 8.69428 12.4745 8.69428 12.472 8.69428C12.4696 8.69428 12.4672 8.69428 12.4647 8.69428C12.4623 8.69428 12.4598 8.69428 12.4574 8.69428C12.4549 8.69428 12.4525 8.69428 12.45 8.69428C12.4476 8.69428 12.4451 8.69428 12.4427 8.69428C12.4402 8.69428 12.4377 8.69428 12.4353 8.69428C12.4328 8.69428 12.4303 8.69428 12.4279 8.69428C12.4254 8.69428 12.4229 8.69428 12.4205 8.69428C12.418 8.69428 12.4155 8.69428 12.413 8.69428C12.4105 8.69428 12.4081 8.69428 12.4056 8.69428C12.4031 8.69428 12.4006 8.69428 12.3981 8.69428C12.3956 8.69428 12.3931 8.69428 12.3906 8.69428C12.3882 8.69428 12.3857 8.69428 12.3832 8.69428C12.3807 8.69428 12.3782 8.69428 12.3757 8.69428C12.3732 8.69428 12.3706 8.69428 12.3681 8.69428C12.3656 8.69428 12.3631 8.69428 12.3606 8.69428C12.3581 8.69428 12.3556 8.69428 12.3531 8.69428C12.3505 8.69428 12.348 8.69428 12.3455 8.69428C12.343 8.69428 12.3405 8.69428 12.3379 8.69428C12.3354 8.69428 12.3329 8.69428 12.3304 8.69428C12.3278 8.69428 12.3253 8.69428 12.3228 8.69428C12.3202 8.69428 12.3177 8.69428 12.3151 8.69428C12.3126 8.69428 12.3101 8.69428 12.3075 8.69428C12.305 8.69428 12.3024 8.69428 12.2999 8.69428C12.2973 8.69428 12.2948 8.69428 12.2922 8.69428C12.2897 8.69428 12.2871 8.69428 12.2846 8.69428C12.282 8.69428 12.2795 8.69428 12.2769 8.69428C12.2743 8.69428 12.2718 8.69428 12.2692 8.69428C12.2667 8.69428 12.2641 8.69428 12.2615 8.69428C12.259 8.69428 12.2564 8.69428 12.2538 8.69428C12.2512 8.69428 12.2487 8.69428 12.2461 8.69428C12.2435 8.69428 12.2409 8.69428 12.2384 8.69428C12.2358 8.69428 12.2332 8.69428 12.2306 8.69428C12.228 8.69428 12.2254 8.69428 12.2229 8.69428C12.2203 8.69428 12.2177 8.69428 12.2151 8.69428C12.2125 8.69428 12.2099 8.69428 12.2073 8.69428C12.2047 8.69428 12.2021 8.69428 12.1995 8.69428C12.1969 8.69428 12.1943 8.69428 12.1917 8.69428C12.1891 8.69428 12.1865 8.69428 12.1839 8.69428C12.1813 8.69428 12.1787 8.69428 12.1761 8.69428C12.1735 8.69428 12.1709 8.69428 12.1683 8.69428C12.1657 8.69428 12.163 8.69428 12.1604 8.69428C12.1578 8.69428 12.1552 8.69428 12.1526 8.69428C12.15 8.69428 12.1473 8.69428 12.1447 8.69428C12.1421 8.69428 12.1395 8.69428 12.1368 8.69428C12.1342 8.69428 12.1316 8.69428 12.129 8.69428C12.1263 8.69428 12.1237 8.69428 12.1211 8.69428C12.1184 8.69428 12.1158 8.69428 12.1132 8.69428C12.1105 8.69428 12.1079 8.69428 12.1053 8.69428C12.1026 8.69428 12.1 8.69428 12.0973 8.69428C12.0947 8.69428 12.0921 8.69428 12.0894 8.69428C12.0868 8.69428 12.0841 8.69428 12.0815 8.69428C12.0788 8.69428 12.0762 8.69428 12.0735 8.69428C12.0709 8.69428 12.0682 8.69428 12.0656 8.69428C12.0629 8.69428 12.0603 8.69428 12.0576 8.69428C12.055 8.69428 12.0523 8.69428 12.0496 8.69428C12.047 8.69428 12.0443 8.69428 12.0417 8.69428C12.039 8.69428 12.0363 8.69428 12.0337 8.69428C12.031 8.69428 12.0284 8.69428 12.0257 8.69428C12.023 8.69428 12.0204 8.69428 12.0177 8.69428C12.015 8.69428 12.0123 8.69428 12.0097 8.69428C12.007 8.69428 12.0043 8.69428 12.0017 8.69428C11.999 8.69428 11.9963 8.69428 11.9936 8.69428C11.991 8.69428 11.9883 8.69428 11.9856 8.69428C11.9829 8.69428 11.9802 8.69428 11.9776 8.69428C11.9749 8.69428 11.9722 8.69428 11.9695 8.69428C11.9668 8.69428 11.9641 8.69428 11.9615 8.69428C11.9588 8.69428 11.9561 8.69428 11.9534 8.69428C11.9507 8.69428 11.948 8.69428 11.9453 8.69428C11.9426 8.69428 11.94 8.69428 11.9373 8.69428C11.9346 8.69428 11.9319 8.69428 11.9292 8.69428C11.9265 8.69428 11.9238 8.69428 11.9211 8.69428C11.9184 8.69428 11.9157 8.69428 11.913 8.69428C11.9103 8.69428 11.9076 8.69428 11.9049 8.69428C11.9022 8.69428 11.8995 8.69428 11.8968 8.69428C11.8941 8.69428 11.8914 8.69428 11.8887 8.69428C11.886 8.69428 11.8833 8.69428 11.8806 8.69428C11.8779 8.69428 11.8752 8.69428 11.8725 8.69428C11.8698 8.69428 11.867 8.69428 11.8643 8.69428C11.8616 8.69428 11.8589 8.69428 11.8562 8.69428C11.8535 8.69428 11.8508 8.69428 11.8481 8.69428C11.8454 8.69428 11.8426 8.69428 11.8399 8.69428C11.8372 8.69428 11.8345 8.69428 11.8318 8.69428C11.8291 8.69428 11.8264 8.69428 11.8236 8.69428C11.8209 8.69428 11.8182 8.69428 11.8155 8.69428C11.8128 8.69428 11.8101 8.69428 11.8073 8.69428C11.8046 8.69428 11.8019 8.69428 11.7992 8.69428C11.7965 8.69428 11.7937 8.69428 11.791 8.69428C11.7883 8.69428 11.7856 8.69428 11.7828 8.69428C11.7801 8.69428 11.7774 8.69428 11.7747 8.69428C11.7719 8.69428 11.7692 8.69428 11.7665 8.69428C11.7638 8.69428 11.761 8.69428 11.7583 8.69428C11.7556 8.69428 11.7529 8.69428 11.7501 8.69428C11.7474 8.69428 11.7447 8.69428 11.7419 8.69428C11.7392 8.69428 11.7365 8.69428 11.7338 8.69428C11.731 8.69428 11.7283 8.69428 11.7256 8.69428C11.7228 8.69428 11.7201 8.69428 11.7174 8.69428C11.7146 8.69428 11.7119 8.69428 11.7092 8.69428C11.7064 8.69428 11.7037 8.69428 11.701 8.69428C11.6982 8.69428 11.6955 8.69428 11.6928 8.69428C11.69 8.69428 11.6873 8.69428 11.6846 8.69428C11.6818 8.69428 11.6791 8.69428 11.6764 8.69428C11.6736 8.69428 11.6709 8.69428 11.6681 8.69428C11.6654 8.69428 11.6627 8.69428 11.6599 8.69428C11.6572 8.69428 11.6545 8.69428 11.6517 8.69428C11.649 8.69428 11.6463 8.69428 11.6435 8.69428C11.6408 8.69428 11.638 8.69428 11.6353 8.69428C11.6326 8.69428 11.6298 8.69428 11.6271 8.69428C11.6243 8.69428 11.6216 8.69428 11.6189 8.69428C11.6161 8.69428 11.6134 8.69428 11.6107 8.69428C11.6079 8.69428 11.6052 8.69428 11.6024 8.69428C11.5997 8.69428 11.597 8.69428 11.5942 8.69428C11.5915 8.69428 11.5887 8.69428 11.586 8.69428C11.5833 8.69428 11.5805 8.69428 11.5778 8.69428C11.575 8.69428 11.5723 8.69428 11.5696 8.69428C11.5668 8.69428 11.5641 8.69428 11.5613 8.69428C11.5586 8.69428 11.5559 8.69428 11.5531 8.69428C11.5504 8.69428 11.5476 8.69428 11.5449 8.69428C11.5422 8.69428 11.5394 8.69428 11.5367 8.69428C11.5339 8.69428 11.5312 8.69428 11.5285 8.69428C11.5257 8.69428 11.523 8.69428 11.5202 8.69428C11.5175 8.69428 11.5148 8.69428 11.512 8.69428C11.5093 8.69428 11.5065 8.69428 11.5038 8.69428C11.5011 8.69428 11.4983 8.69428 11.4956 8.69428C11.4928 8.69428 11.4901 8.69428 11.4874 8.69428C11.4846 8.69428 11.4819 8.69428 11.4792 8.69428C11.4764 8.69428 11.4737 8.69428 11.4709 8.69428C11.4682 8.69428 11.4655 8.69428 11.4627 8.69428C11.46 8.69428 11.4573 8.69428 11.4545 8.69428C11.4518 8.69428 11.4491 8.69428 11.4463 8.69428C11.4436 8.69428 11.4408 8.69428 11.4381 8.69428C11.4354 8.69428 11.4326 8.69428 11.4299 8.69428C11.4272 8.69428 11.4244 8.69428 11.4217 8.69428C11.419 8.69428 11.4162 8.69428 11.4135 8.69428C11.4108 8.69428 11.408 8.69428 11.4053 8.69428C11.4026 8.69428 11.3998 8.69428 11.3971 8.69428C11.3944 8.69428 11.3917 8.69428 11.3889 8.69428C11.3862 8.69428 11.3835 8.69428 11.3807 8.69428C11.378 8.69428 11.3753 8.69428 11.3726 8.69428C11.3698 8.69428 11.3671 8.69428 11.3644 8.69428C11.3616 8.69428 11.3589 8.69428 11.3562 8.69428C11.3535 8.69428 11.3507 8.69428 11.348 8.69428C11.3453 8.69428 11.3426 8.69428 11.3398 8.69428C11.3371 8.69428 11.3344 8.69428 11.3317 8.69428C11.329 8.69428 11.3262 8.69428 11.3235 8.69428C11.3208 8.69428 11.3181 8.69428 11.3154 8.69428C11.3126 8.69428 11.3099 8.69428 11.3072 8.69428C11.3045 8.69428 11.3018 8.69428 11.299 8.69428C11.2963 8.69428 11.2936 8.69428 11.2909 8.69428C11.2882 8.69428 11.2855 8.69428 11.2828 8.69428C11.28 8.69428 11.2773 8.69428 11.2746 8.69428C11.2719 8.69428 11.2692 8.69428 11.2665 8.69428C11.2638 8.69428 11.2611 8.69428 11.2584 8.69428C11.2556 8.69428 11.2529 8.69428 11.2502 8.69428C11.2475 8.69428 11.2448 8.69428 11.2421 8.69428C11.2394 8.69428 11.2367 8.69428 11.234 8.69428C11.2313 8.69428 11.2286 8.69428 11.2259 8.69428C11.2232 8.69428 11.2205 8.69428 11.2178 8.69428C11.2151 8.69428 11.2124 8.69428 11.2097 8.69428C11.207 8.69428 11.2043 8.69428 11.2016 8.69428C11.1989 8.69428 11.1962 8.69428 11.1935 8.69428C11.1908 8.69428 11.1881 8.69428 11.1855 8.69428C11.1828 8.69428 11.1801 8.69428 11.1774 8.69428C11.1747 8.69428 11.172 8.69428 11.1693 8.69428C11.1666 8.69428 11.1639 8.69428 11.1613 8.69428C11.1586 8.69428 11.1559 8.69428 11.1532 8.69428C11.1505 8.69428 11.1478 8.69428 11.1452 8.69428C11.1425 8.69428 11.1398 8.69428 11.1371 8.69428C11.1344 8.69428 11.1318 8.69428 11.1291 8.69428C11.1264 8.69428 11.1237 8.69428 11.1211 8.69428C11.1184 8.69428 11.1157 8.69428 11.1131 8.69428C11.1104 8.69428 11.1077 8.69428 11.105 8.69428C11.1024 8.69428 11.0997 8.69428 11.097 8.69428C11.0944 8.69428 11.0917 8.69428 11.0891 8.69428C11.0864 8.69428 11.0837 8.69428 11.0811 8.69428C11.0784 8.69428 11.0758 8.69428 11.0731 8.69428C11.0704 8.69428 11.0678 8.69428 11.0651 8.69428C11.0625 8.69428 11.0598 8.69428 11.0572 8.69428C11.0545 8.69428 11.0519 8.69428 11.0492 8.69428C11.0466 8.69428 11.0439 8.69428 11.0413 8.69428C11.0386 8.69428 11.036 8.69428 11.0333 8.69428C11.0307 8.69428 11.0281 8.69428 11.0254 8.69428C11.0228 8.69428 11.0201 8.69428 11.0175 8.69428C11.0149 8.69428 11.0122 8.69428 11.0096 8.69428C11.007 8.69428 11.0043 8.69428 11.0017 8.69428C10.9991 8.69428 10.9964 8.69428 10.9938 8.69428C10.9912 8.69428 10.9886 8.69428 10.9859 8.69428C10.9833 8.69428 10.9807 8.69428 10.9781 8.69428C10.9754 8.69428 10.9728 8.69428 10.9702 8.69428C10.9676 8.69428 10.965 8.69428 10.9624 8.69428C10.9597 8.69428 10.9571 8.69428 10.9545 8.69428C10.9519 8.69428 10.9493 8.69428 10.9467 8.69428C10.9441 8.69428 10.9415 8.69428 10.9389 8.69428C10.9363 8.69428 10.9337 8.69428 10.9311 8.69428C10.9285 8.69428 10.9259 8.69428 10.9233 8.69428C10.9207 8.69428 10.9181 8.69428 10.9155 8.69428C10.9129 8.69428 10.9103 8.69428 10.9077 8.69428C10.9051 8.69428 10.9025 8.69428 10.8999 8.69428C10.8974 8.69428 10.8948 8.69428 10.8922 8.69428C10.8896 8.69428 10.887 8.69428 10.8845 8.69428C10.8819 8.69428 10.8793 8.69428 10.8767 8.69428C10.8741 8.69428 10.8716 8.69428 10.869 8.69428C10.8664 8.69428 10.8639 8.69428 10.8613 8.69428C10.8587 8.69428 10.8562 8.69428 10.8536 8.69428C10.851 8.69428 10.8485 8.69428 10.8459 8.69428C10.8434 8.69428 10.8408 8.69428 10.8383 8.69428C10.8357 8.69428 10.8331 8.69428 10.8306 8.69428C10.828 8.69428 10.8255 8.69428 10.823 8.69428C10.8204 8.69428 10.8179 8.69428 10.8153 8.69428C10.8128 8.69428 10.8102 8.69428 10.8077 8.69428C10.8052 8.69428 10.8026 8.69428 10.8001 8.69428C10.7976 8.69428 10.795 8.69428 10.7925 8.69428C10.79 8.69428 10.7874 8.69428 10.7849 8.69428C10.7824 8.69428 10.7799 8.69428 10.7774 8.69428C10.7748 8.69428 10.7723 8.69428 10.7698 8.69428C10.7673 8.69428 10.7648 8.69428 10.7623 8.69428C10.7598 8.69428 10.7572 8.69428 10.7547 8.69428C10.7522 8.69428 10.7497 8.69428 10.7472 8.69428C10.7447 8.69428 10.7422 8.69428 10.7397 8.69428C10.7372 8.69428 10.7347 8.69428 10.7322 8.69428C10.7298 8.69428 10.7273 8.69428 10.7248 8.69428C10.7223 8.69428 10.7198 8.69428 10.7173 8.69428C10.7148 8.69428 10.7124 8.69428 10.7099 8.69428C10.7074 8.69428 10.7049 8.69428 10.7025 8.69428C10.7 8.69428 10.6975 8.69428 10.695 8.69428C10.6926 8.69428 10.6901 8.69428 10.6876 8.69428C10.6852 8.69428 10.6827 8.69428 10.6803 8.69428C10.6778 8.69428 10.6754 8.69428 10.6729 8.69428C10.6704 8.69428 10.668 8.69428 10.6655 8.69428C10.6631 8.69428 10.6607 8.69428 10.6582 8.69428C10.6558 8.69428 10.6533 8.69428 10.6509 8.69428C10.6485 8.69428 10.646 8.69428 10.6436 8.69428C10.6412 8.69428 10.6387 8.69428 10.6363 8.69428C10.6339 8.69428 10.6315 8.69428 10.629 8.69428C10.6266 8.69428 10.6242 8.69428 10.6218 8.69428C10.6194 8.69428 10.6169 8.69428 10.6145 8.69428C10.6121 8.69428 10.6097 8.69428 10.6073 8.69428C10.6049 8.69428 10.6025 8.69428 10.6001 8.69428C10.5977 8.69428 10.5953 8.69428 10.5929 8.69428C10.5905 8.69428 10.5881 8.69428 10.5857 8.69428C10.5834 8.69428 10.581 8.69428 10.5786 8.69428C10.5762 8.69428 10.5738 8.69428 10.5715 8.69428C10.5691 8.69428 10.5667 8.69428 10.5643 8.69428C10.562 8.69428 10.5596 8.69428 10.5572 8.69428C10.5549 8.69428 10.5525 8.69428 10.5501 8.69428C10.5478 8.69428 10.5454 8.69428 10.5431 8.69428C10.5407 8.69428 10.5384 8.69428 10.536 8.69428C10.5337 8.69428 10.5313 8.69428 10.529 8.69428C10.5267 8.69428 10.5243 8.69428 10.522 8.69428C10.5196 8.69428 10.5173 8.69428 10.515 8.69428C10.5127 8.69428 10.5103 8.69428 10.508 8.69428C10.5057 8.69428 10.5034 8.69428 10.501 8.69428C10.4987 8.69428 10.4964 8.69428 10.4941 8.69428C10.4918 8.69428 10.4895 8.69428 10.4872 8.69428C10.4849 8.69428 10.4826 8.69428 10.4803 8.69428C10.478 8.69428 10.4757 8.69428 10.4734 8.69428C10.4711 8.69428 10.4688 8.69428 10.4665 8.69428C10.4643 8.69428 10.462 8.69428 10.4597 8.69428C10.4574 8.69428 10.4551 8.69428 10.4529 8.69428C10.4506 8.69428 10.4483 8.69428 10.4461 8.69428C10.4438 8.69428 10.4415 8.69428 10.4393 8.69428C10.437 8.69428 10.4348 8.69428 10.4325 8.69428C10.4303 8.69428 10.428 8.69428 10.4258 8.69428C10.4235 8.69428 10.4213 8.69428 10.419 8.69428C10.4168 8.69428 10.4146 8.69428 10.4123 8.69428C10.4101 8.69428 10.4079 8.69428 10.4056 8.69428C10.4034 8.69428 10.4012 8.69428 10.399 8.69428C10.3968 8.69428 10.3945 8.69428 10.3923 8.69428C10.3901 8.69428 10.3879 8.69428 10.3857 8.69428C10.3835 8.69428 10.3813 8.69428 10.3791 8.69428C10.3769 8.69428 10.3747 8.69428 10.3725 8.69428C10.3703 8.69428 10.3682 8.69428 10.366 8.69428C10.3638 8.69428 10.3616 8.69428 10.3594 8.69428C10.3573 8.69428 10.3551 8.69428 10.3529 8.69428C10.3507 8.69428 10.3486 8.69428 10.3464 8.69428C10.3443 8.69428 10.3421 8.69428 10.34 8.69428C10.3378 8.69428 10.3356 8.69428 10.3335 8.69428C10.3314 8.69428 10.3292 8.69428 10.3271 8.69428C10.3249 8.69428 10.3228 8.69428 10.3207 8.69428C10.3185 8.69428 10.3164 8.69428 10.3143 8.69428C10.3122 8.69428 10.31 8.69428 10.3079 8.69428C10.3058 8.69428 10.3037 8.69428 10.3016 8.69428C10.2995 8.69428 10.2974 8.69428 10.2953 8.69428C10.2932 8.69428 10.2911 8.69428 10.289 8.69428C10.2869 8.69428 10.2848 8.69428 10.2827 8.69428C10.2806 8.69428 10.2785 8.69428 10.2764 8.69428C10.2744 8.69428 10.2723 8.69428 10.2702 8.69428C10.2682 8.69428 10.2661 8.69428 10.264 8.69428C10.262 8.69428 10.2599 8.69428 10.2578 8.69428C10.2558 8.69428 10.2537 8.69428 10.2517 8.69428C10.2496 8.69428 10.2476 8.69428 10.2456 8.69428C10.2435 8.69428 10.2415 8.69428 10.2395 8.69428C10.2374 8.69428 10.2354 8.69428 10.2334 8.69428C10.2314 8.69428 10.2293 8.69428 10.2273 8.69428C10.2253 8.69428 10.2233 8.69428 10.2213 8.69428C10.2193 8.69428 10.2173 8.69428 10.2153 8.69428C10.2133 8.69428 10.2113 8.69428 10.2093 8.69428C10.2073 8.69428 10.2053 8.69428 10.2033 8.69428C10.2014 8.69428 10.1994 8.69428 10.1974 8.69428C10.1954 8.69428 10.1935 8.69428 10.1915 8.69428C10.1895 8.69428 10.1876 8.69428 10.1856 8.69428C10.1837 8.69428 10.1817 8.69428 10.1798 8.69428C10.1778 8.69428 10.1759 8.69428 10.1739 8.69428C10.172 8.69428 10.17 8.69428 10.1681 8.69428C10.1662 8.69428 10.1643 8.69428 10.1623 8.69428C10.1604 8.69428 10.1585 8.69428 10.1566 8.69428C10.1547 8.69428 10.1528 8.69428 10.1509 8.69428C10.1489 8.69428 10.147 8.69428 10.1452 8.69428C10.1433 8.69428 10.1414 8.69428 10.1395 8.69428C10.1376 8.69428 10.1357 8.69428 10.1338 8.69428C10.1319 8.69428 10.1301 8.69428 10.1282 8.69428C10.1263 8.69428 10.1245 8.69428 10.1226 8.69428C10.1207 8.69428 10.1189 8.69428 10.117 8.69428C10.1152 8.69428 10.1133 8.69428 10.1115 8.69428C10.1097 8.69428 10.1078 8.69428 10.106 8.69428C10.1041 8.69428 10.1023 8.69428 10.1005 8.69428C10.0987 8.69428 10.0968 8.69428 10.095 8.69428C10.0932 8.69428 10.0914 8.69428 10.0896 8.69428C10.0878 8.69428 10.086 8.69428 10.0842 8.69428C10.0824 8.69428 10.0806 8.69428 10.0788 8.69428C10.077 8.69428 10.0752 8.69428 10.0735 8.69428C10.0717 8.69428 10.0699 8.69428 10.0681 8.69428C10.0664 8.69428 10.0646 8.69428 10.0628 8.69428C10.0611 8.69428 10.0593 8.69428 10.0576 8.69428C10.0558 8.69428 10.0541 8.69428 10.0523 8.69428C10.0506 8.69428 10.0489 8.69428 10.0471 8.69428C10.0454 8.69428 10.0437 8.69428 10.042 8.69428C10.0402 8.69428 10.0385 8.69428 10.0368 8.69428C10.0351 8.69428 10.0334 8.69428 10.0317 8.69428C10.03 8.69428 10.0283 8.69428 10.0266 8.69428C10.0249 8.69428 10.0232 8.69428 10.0215 8.69428C10.0199 8.69428 10.0182 8.69428 10.0165 8.69428C10.0148 8.69428 10.0132 8.69428 10.0115 8.69428C10.0098 8.69428 10.0082 8.69428 10.0065 8.69428C10.0049 8.69428 10.0032 8.69428 10.0016 8.69428C9.99995 8.69428 9.99831 8.69428 9.99667 8.69428C9.99504 8.69428 9.99341 8.69428 9.99179 8.69428C9.99017 8.69428 9.98855 8.69428 9.98694 8.69428C9.98533 8.69428 9.98372 8.69428 9.98212 8.69428C9.98051 8.69428 9.97892 8.69428 9.97732 8.69428C9.97573 8.69428 9.97415 8.69428 9.97256 8.69428C9.97098 8.69428 9.96941 8.69428 9.96783 8.69428C9.96626 8.69428 9.9647 8.69428 9.96314 8.69428C9.96157 8.69428 9.96002 8.69428 9.95847 8.69428C9.95692 8.69428 9.95537 8.69428 9.95383 8.69428C9.95229 8.69428 9.95076 8.69428 9.94923 8.69428C9.9477 8.69428 9.94617 8.69428 9.94465 8.69428C9.94313 8.69428 9.94162 8.69428 9.94011 8.69428C9.9386 8.69428 9.9371 8.69428 9.9356 8.69428C9.9341 8.69428 9.93261 8.69428 9.93112 8.69428C9.92963 8.69428 9.92815 8.69428 9.92668 8.69428C9.9252 8.69428 9.92373 8.69428 9.92226 8.69428C9.9208 8.69428 9.91934 8.69428 9.91788 8.69428C9.91643 8.69428 9.91498 8.69428 9.91353 8.69428C9.91209 8.69428 9.91065 8.69428 9.90921 8.69428C9.90778 8.69428 9.90635 8.69428 9.90493 8.69428C9.90351 8.69428 9.90209 8.69428 9.90068 8.69428C9.89927 8.69428 9.89786 8.69428 9.89646 8.69428C9.89506 8.69428 9.89367 8.69428 9.89228 8.69428C9.89089 8.69428 9.88951 8.69428 9.88813 8.69428C9.88675 8.69428 9.88538 8.69428 9.88401 8.69428C9.88264 8.69428 9.88128 8.69428 9.87993 8.69428C9.87857 8.69428 9.87722 8.69428 9.87588 8.69428C9.87453 8.69428 9.87319 8.69428 9.87186 8.69428C9.87053 8.69428 9.8692 8.69428 9.86788 8.69428C9.86656 8.69428 9.86524 8.69428 9.86393 8.69428C9.86262 8.69428 9.86131 8.69428 9.86002 8.69428C9.85872 8.69428 9.85742 8.69428 9.85614 8.69428C9.85485 8.69428 9.85357 8.69428 9.85229 8.69428C9.85102 8.69428 9.84975 8.69428 9.84848 8.69428C9.84722 8.69428 9.84596 8.69428 9.84471 8.69428C9.84345 8.69428 9.84221 8.69428 9.84097 8.69428C9.83973 8.69428 9.83849 8.69428 9.83726 8.69428C9.83603 8.69428 9.83481 8.69428 9.83359 8.69428C9.83237 8.69428 9.83116 8.69428 9.82996 8.69428C9.82875 8.69428 9.82755 8.69428 9.82636 8.69428C9.82516 8.69428 9.82398 8.69428 9.82279 8.69428C9.82161 8.69428 9.82044 8.69428 9.81927 8.69428C9.8181 8.69428 9.81693 8.69428 9.81577 8.69428C9.81462 8.69428 9.81347 8.69428 9.81232 8.69428C9.81117 8.69428 9.81003 8.69428 9.8089 8.69428C9.80777 8.69428 9.80664 8.69428 9.80552 8.69428C9.8044 8.69428 9.80328 8.69428 9.80217 8.69428C9.80106 8.69428 9.79996 8.69428 9.79886 8.69428C9.79776 8.69428 9.79667 8.69428 9.79559 8.69428C9.7945 8.69428 9.79342 8.69428 9.79235 8.69428C9.79128 8.69428 9.79021 8.69428 9.78915 8.69428C9.78809 8.69428 9.78704 8.69428 9.78599 8.69428C9.78494 8.69428 9.7839 8.69428 9.78287 8.69428C9.78183 8.69428 9.7808 8.69428 9.77978 8.69428C9.77876 8.69428 9.77774 8.69428 9.77673 8.69428C9.77572 8.69428 9.77471 8.69428 9.77372 8.69428C9.77272 8.69428 9.77173 8.69428 9.77074 8.69428C9.76976 8.69428 9.76878 8.69428 9.76781 8.69428C9.76683 8.69428 9.76587 8.69428 9.76491 8.69428C9.76395 8.69428 9.763 8.69428 9.76205 8.69428C9.7611 8.69428 9.76016 8.69428 9.75923 8.69428C9.75829 8.69428 9.75737 8.69428 9.75644 8.69428C9.75552 8.69428 9.75461 8.69428 9.7537 8.69428C9.75279 8.69428 9.75189 8.69428 9.751 8.69428C9.7501 8.69428 9.74921 8.69428 9.74833 8.69428C9.74745 8.69428 9.74657 8.69428 9.7457 8.69428C9.74483 8.69428 9.74397 8.69428 9.74311 8.69428C9.74226 8.69428 9.74141 8.69428 9.74057 8.69428C9.73972 8.69428 9.73889 8.69428 9.73806 8.69428C9.73723 8.69428 9.7364 8.69428 9.73559 8.69428C9.73477 8.69428 9.73396 8.69428 9.73316 8.69428C9.73235 8.69428 9.73156 8.69428 9.73077 8.69428C9.72998 8.69428 9.72919 8.69428 9.72842 8.69428C9.72764 8.69428 9.72687 8.69428 9.72611 8.69428C9.72535 8.69428 9.72459 8.69428 9.72384 8.69428C9.72309 8.69428 9.72235 8.69428 9.72161 8.69428C9.72087 8.69428 9.72014 8.69428 9.71942 8.69428C9.7187 8.69428 9.71798 8.69428 9.71727 8.69428C9.71657 8.69428 9.71586 8.69428 9.71517 8.69428C9.71447 8.69428 9.71378 8.69428 9.7131 8.69428C9.71242 8.69428 9.71175 8.69428 9.71108 8.69428C9.71041 8.69428 9.70975 8.69428 9.7091 8.69428C9.70844 8.69428 9.70779 8.69428 9.70715 8.69428C9.70651 8.69428 9.70588 8.69428 9.70525 8.69428C9.70463 8.69428 9.70401 8.69428 9.70339 8.69428C9.70278 8.69428 9.70218 8.69428 9.70158 8.69428C9.70098 8.69428 9.70039 8.69428 9.6998 8.69428C9.69922 8.69428 9.69864 8.69428 9.69807 8.69428C9.6975 8.69428 9.69694 8.69428 9.69638 8.69428C9.69582 8.69428 9.69528 8.69428 9.69473 8.69428C9.69419 8.69428 9.69366 8.69428 9.69313 8.69428C9.6926 8.69428 9.69208 8.69428 9.69157 8.69428C9.69105 8.69428 9.69054 8.69428 9.69004 8.69428C9.68955 8.69428 9.68905 8.69428 9.68857 8.69428C9.68808 8.69428 9.6876 8.69428 9.68713 8.69428C9.68666 8.69428 9.6862 8.69428 9.68574 8.69428C9.68529 8.69428 9.68484 8.69428 9.6844 8.69428C9.68395 8.69428 9.68352 8.69428 9.68309 8.69428C9.68266 8.69428 9.68224 8.69428 9.68183 8.69428C9.68142 8.69428 9.68101 8.69428 9.68062 8.69428C9.68022 8.69428 9.67983 8.69428 9.67944 8.69428C9.67906 8.69428 9.67868 8.69428 9.67831 8.69428C9.67795 8.69428 9.67758 8.69428 9.67723 8.69428C9.67688 8.69428 9.67653 8.69428 9.67619 8.69428C9.67585 8.69428 9.67552 8.69428 9.67519 8.69428C9.67487 8.69428 9.67455 8.69428 9.67424 8.69428C9.67393 8.69428 9.67363 8.69428 9.67334 8.69428C9.67304 8.69428 9.67275 8.69428 9.67247 8.69428C9.67219 8.69428 9.67192 8.69428 9.67166 8.69428C9.67139 8.69428 9.67114 8.69428 9.67089 8.69428C9.67064 8.69428 9.67039 8.69428 9.67016 8.69428C9.66993 8.69428 9.6697 8.69428 9.66948 8.69428C9.66926 8.69428 9.66905 8.69428 9.66884 8.69428C9.66864 8.69428 9.66844 8.69428 9.66825 8.69428C9.66807 8.69428 9.66788 8.69428 9.66771 8.69428V10.1943Z" fill="white"/>
</svg>
