<svg width="19" height="18" viewBox="0 0 19 18" fill="none" xmlns="http://www.w3.org/2000/svg">
<path fill-rule="evenodd" clip-rule="evenodd" d="M9.24838 3.00361L9.03373 3C5.92803 3 3.12917 5.19231 1.57791 8.77938C1.517 8.92023 1.517 9.07977 1.57791 9.22062L1.68541 9.46259C3.21701 12.8199 5.86381 14.8983 8.81607 14.9964L9.03073 15C12.1364 15 14.9353 12.8077 16.4865 9.22062C16.5482 9.07799 16.5474 8.9163 16.4843 8.77428L16.3799 8.53923C14.8445 5.17568 12.1966 3.1016 9.24838 3.00361ZM9.0389 4.1171L9.2181 4.12096L9.41836 4.13138C11.8163 4.30117 14.0216 6.07919 15.3539 8.99937L15.3469 9.01739C13.9812 12.0004 11.6999 13.789 9.22631 13.8788L9.03515 13.8816L8.84235 13.8791L8.6426 13.8687C6.31918 13.7041 4.17693 12.0258 2.83651 9.26981L2.70965 8.99937L2.82708 8.74968C4.24053 5.8299 6.55076 4.11774 9.0389 4.1171ZM9.03176 6.08514C7.41146 6.08514 6.09851 7.38989 6.09851 9.00019C6.09851 10.6099 7.4116 11.9145 9.03176 11.9145C10.652 11.9145 11.9658 10.6098 11.9658 9.00019C11.9658 7.38998 10.6522 6.08514 9.03176 6.08514ZM9.03176 7.2029C10.0309 7.2029 10.8408 8.00736 10.8408 9.00021C10.8408 9.99241 10.0308 10.7968 9.03176 10.7968C8.03292 10.7968 7.22351 9.9926 7.22351 9.00021C7.22351 8.00717 8.03283 7.2029 9.03176 7.2029Z" fill="white"/>
</svg>
